<?xml version="1.0" encoding="utf-8"?>
<!-- Generator: Adobe Illustrator 27.5.0, SVG Export Plug-In . SVG Version: 6.00 Build 0)  -->
<svg version="1.1" id="Layer_1" xmlns="http://www.w3.org/2000/svg" xmlns:xlink="http://www.w3.org/1999/xlink" x="0px" y="0px"
	 viewBox="0 0 288 288" style="enable-background:new 0 0 288 288;" xml:space="preserve">
<g>
	<rect x="0" y="0" style="fill:#FFFFFF;" width="288" height="288"/>
	<g>
		<g>
			<path style="fill:#001C33;" d="M100.641,216.342c-0.309,0.046-0.621,0.142-0.927,0.124c-0.392-0.022-0.781-0.134-0.958-0.562
				c-0.417-1.01-1.189-1.41-2.247-1.357c-0.392,0.02-0.786-0.016-1.179-0.032c-0.273-0.011-0.448-0.198-0.519-0.419
				c-0.118-0.368-0.077-0.817-0.272-1.124c-0.373-0.59-0.042-1.003,0.247-1.543c-0.913-0.025-1.778-0.076-2.642-0.064
				c-0.946,0.013-1.892,0.084-2.838,0.127c-1.024,0.047-2.041,0.11-3.065-0.101c-0.532-0.11-1.102-0.02-1.651-0.067
				c-0.626-0.053-1.291-0.045-1.864-0.263c-1.215-0.463-2.449-0.532-3.717-0.477c-0.593,0.026-1.092-0.172-1.289-0.806
				c-0.055-0.178-0.141-0.303-0.325-0.296c-0.313,0.011-0.643-0.009-0.934,0.085c-0.651,0.212-1.286,0.115-1.83-0.197
				c-0.967-0.554-2.021-0.882-3.022-1.338c-1.29-0.587-2.511-1.325-3.196-2.675c-0.239-0.472-0.68-0.681-1.153-0.728
				c-0.623-0.061-1.256-0.04-1.883-0.02c-1.182,0.038-2.363,0.095-3.544,0.156c-1.428,0.073-2.832-0.033-4.181-0.552
				c-0.379-0.146-0.762-0.156-1.161-0.132c-1.269,0.076-2.528,0.062-3.665-0.644c-0.066-0.041-0.148-0.089-0.219-0.084
				c-1.657,0.11-2.969-0.953-4.483-1.329c-1.253-0.311-2.302-1.007-3.275-1.838c-0.822-0.702-1.602-2.211-1.636-3.325
				c-0.009-0.299,0.103-0.624,0.234-0.901c0.234-0.496,0.524-0.956,0.738-1.473c0.208-0.504,0.014-0.926,0.025-1.38
				c0.003-0.101-0.255-0.316-0.29-0.296c-0.808,0.46-1.648,0.377-2.508,0.216c-0.554-0.104-1.044-0.251-1.44-0.717
				c-0.173-0.204-0.569-0.32-0.854-0.305c-0.898,0.048-1.709-0.197-2.52-0.536c-0.653-0.274-1.319-0.533-2.001-0.714
				c-0.99-0.263-1.97-0.49-2.492-1.525c-0.056-0.111-0.271-0.146-0.417-0.206c-0.382-0.158-0.682-0.43-0.845-0.795
				c-0.323-0.721-0.683-1.443-0.867-2.204c-0.184-0.76-0.212-1.566-0.228-2.354c-0.007-0.38,0.075-0.83,0.283-1.134
				c0.763-1.113,1.263-2.368,1.961-3.512c0.111-0.182,0.342-0.369,0.543-0.404c0.846-0.146,1.167-0.785,1.361-1.477
				c0.278-0.989,0.512-1.997,0.672-3.011c0.137-0.867,0.328-1.703,0.644-2.525c0.459-1.195,0.683-2.448,0.558-3.729
				c-0.28-2.877,0.157-5.699,0.66-8.505c0.433-2.417,0.721-4.846,0.976-7.286c0.173-1.649,0.539-3.278,0.814-4.916
				c0.117-0.701,0.266-1.4,0.324-2.107c0.175-2.133,0.332-4.268,0.461-6.404c0.2-3.321,0.368-6.644,0.56-9.965
				c0.027-0.474,0.117-0.944,0.167-1.417c0.36-3.39,0.637-6.786,0.679-10.198c0.008-0.634,0.023-1.269,0.064-1.902
				c0.213-3.243,0.343-6.486,0.087-9.734c-0.075-0.951-0.035-1.89,0.245-2.822c0.203-0.678,0.307-1.389,0.421-2.091
				c0.204-1.262,0.183-1.52-0.135-3.363c-0.287-0.296-0.571-0.7-0.953-0.961c-0.83-0.569-1.207-1.38-1.582-2.282
				c-0.418-1.005-0.464-1.99-0.357-3.022c0.034-0.326,0.176-0.592,0.477-0.769c0.347-0.204,0.721-0.483,0.758-0.87
				c0.116-1.222,0.948-1.784,1.924-2.148c0.617-0.23,1.11-0.587,1.587-0.996c0.306-0.263,0.611-0.513,1.025-0.536
				c0.734-0.04,1.372-0.315,1.978-0.713c0.871-0.573,1.931-0.63,2.879-1.013c0.476-0.192,1.094-0.101,1.637-0.037
				c0.8,0.095,1.575,0.048,2.333-0.198c0.699-0.227,1.403-0.251,2.102-0.077c1.487,0.369,2.973,0.221,4.468,0.094
				c0.649-0.055,1.231-0.169,1.741-0.61c0.306-0.265,0.708-0.364,1.112-0.296c0.555,0.093,1.067,0.053,1.611-0.144
				c0.663-0.241,1.378-0.334,2.065-0.511c1.299-0.334,2.579-0.732,3.805-1.278c0.605-0.269,1.221-0.41,1.833-0.202
				c0.753,0.256,1.393,0.058,2.033-0.29c0.349-0.189,0.705-0.391,1.113-0.329c0.544,0.084,1.09,0.332,1.619,0.292
				c0.537-0.04,1.068-0.268,1.628-0.212c0.391,0.039,0.777,0.126,1.169,0.164c0.625,0.06,1.253,0.132,1.88,0.129
				c0.299-0.002,0.661-0.085,0.886-0.266c1.11-0.896,2.233-1.067,3.479-0.28c0.254,0.161,0.614,0.111,0.901-0.078
				c0.065-0.043,0.128-0.091,0.183-0.145c0.724-0.703,1.638-0.781,2.391-0.295c1.108,0.716,2.253,0.73,3.411,0.483
				c0.79-0.169,1.542-0.208,2.334-0.138c0.625,0.055,1.261-0.004,1.892-0.015c0.641-0.011,1.244-0.159,1.797-0.5
				c0.133-0.082,0.293-0.122,0.427-0.203c0.6-0.359,1.182-0.364,1.769,0.04c0.277,0.19,0.621,0.249,0.887,0.035
				c0.587-0.473,1.266-0.621,1.982-0.656c0.55-0.027,1.103-0.027,1.654-0.004c0.251,0.01,0.396,0.188,0.427,0.456
				c0.04,0.346,0.248,0.601,0.571,0.676c0.3,0.07,0.629,0.084,0.933,0.039c0.22-0.033,0.426-0.191,0.626-0.314
				c0.33-0.203,0.585-0.541,1.015-0.563c0.067-0.019,0.133-0.053,0.2-0.051c0.049,0.001,0.097,0.049,0.146,0.075
				c-0.137-0.004-0.274-0.007-0.41-0.011c0.744-0.508,0.964-0.566,1.393-0.07c0.293,0.337,0.591,0.494,0.997,0.495
				c0.312,0.001,0.636,0.011,0.934-0.065c0.532-0.135,1.048-0.333,1.689-0.543c0.579,0.148,1.258,0.331,1.942,0.496
				c0.65,0.157,1.228,0.073,1.736-0.44c0.689-0.696,1.603-0.744,2.43-0.465c1.65,0.559,3.24,0.448,4.869-0.036
				c0.594-0.176,1.237-0.206,1.862-0.251c0.627-0.045,1.264,0.016,1.888-0.047c0.868-0.089,1.69-0.322,2.409-0.882
				c0.617-0.481,1.244-1.027,1.959-1.285c0.718-0.26,1.138-0.83,1.733-1.194c0.199-0.122,0.404-0.287,0.622-0.318
				c0.88-0.124,1.649-0.468,2.386-0.966c0.381-0.257,0.875-0.346,1.32-0.506c0.368-0.132,0.764-0.211,1.101-0.398
				c0.442-0.245,0.886-0.323,1.363-0.219c1.099,0.24,2.181,0.247,3.253-0.143c0.219-0.08,0.464-0.09,0.696-0.134
				c0.473-0.091,0.946-0.109,1.393,0.095c1.367,0.623,2.793,0.355,4.199,0.27c0.369-0.022,0.735-0.262,1.082-0.442
				c1.033-0.535,2.082-0.701,3.181-0.214c0.143,0.063,0.296,0.112,0.45,0.137c0.567,0.093,1.095,0.052,1.509-0.428
				c0.478-0.554,1.039-0.641,1.694-0.305c0.349,0.179,0.73,0.299,1.101,0.432c0.451,0.161,0.919,0.259,1.393,0.141
				c1.483-0.37,2.978-0.155,4.47-0.123c0.709,0.015,1.418,0.045,2.126,0.016c0.301-0.012,0.696-0.068,0.876-0.264
				c0.662-0.719,1.353-0.615,2.137-0.275c0.377,0.163,0.768,0.042,1.104-0.218c0.247-0.191,0.495-0.393,0.77-0.535
				c0.433-0.223,0.921-0.278,1.383-0.157c0.602,0.158,1.218,0.325,1.668,0.813c0.633,0.686,1.414,0.58,2.189,0.381
				c0.208-0.054,0.395-0.248,0.555-0.413c0.682-0.702,0.724-0.764,1.286-0.288c0.509,0.431,1.103,0.599,1.689,0.81
				c0.209,0.075,0.5,0.097,0.693,0.008c1.059-0.487,2.156-0.421,3.254-0.262c0.918,0.132,1.782-0.06,2.435-0.657
				c0.691-0.631,1.207-0.512,1.863-0.014c0.297,0.225,0.72,0.309,1.099,0.389c0.299,0.063,0.651,0.11,0.927,0.013
				c1.512-0.532,3.086-0.551,4.654-0.639c0.157-0.009,0.336,0.03,0.467-0.033c1.622-0.776,3.262,0.047,4.89-0.055
				c0.207-0.013,0.463,0.12,0.634,0.261c0.767,0.63,1.632,0.83,2.614,0.834c0.778,0.003,1.555,0.225,2.335,0.328
				c0.315,0.042,0.679,0.023,0.879-0.234c0.635-0.82,1.564-0.594,2.388-0.712c0.185-0.026,0.458,0.145,0.597,0.307
				c0.275,0.322,0.607,0.479,1.002,0.566c0.396,0.088,0.792,0.144,1.125-0.133c0.454-0.378,0.974-0.491,1.541-0.493
				c0.582-0.003,1.095,0.103,1.362,0.718c0.184,0.425,0.585,0.434,0.977,0.521c0.663,0.148,1.21-0.47,1.82-0.269
				c0.592,0.195,1.118,0.543,1.783,0.568c0.612,0.023,1.172,0.286,1.844,0.192c0.753-0.105,1.558,0.053,2.188,0.668
				c0.198,0.193,0.567,0.267,0.865,0.288c0.625,0.045,1.255-0.001,1.881,0.029c0.315,0.015,0.596,0.147,0.792,0.439
				c0.127,0.189,0.3,0.36,0.485,0.494c0.466,0.338,0.775,0.321,1.259-0.034c0.125-0.092,0.221-0.232,0.355-0.304
				c0.703-0.378,1.322-0.267,1.834,0.417c0.314,0.419,0.661,0.648,1.176,0.646c0.943-0.004,1.887-0.01,2.83,0.011
				c0.311,0.007,0.627,0.067,0.928,0.149c0.222,0.06,0.423,0.196,0.621,0.292c-0.005,0.344-0.05,0.665-0.005,0.972
				c0.096,0.66,0.592,0.834,0.995,0.599c0.271-0.158,0.553-0.296,0.839-0.426c0.231-0.105,0.45,0.082,0.368,0.366
				c-0.1,0.349-0.068,0.608,0.239,0.813c0.184,0.123,0.503,0.253,0.391,0.483c-0.202,0.414-0.115,0.699,0.108,1.07
				c0.323,0.539,0.575,1.128,0.801,1.716c0.178,0.462,0.117,0.943-0.167,1.361c-0.069,0.101-0.224,0.153-0.35,0.197
				c-0.029,0.01-0.11-0.1-0.152-0.165c-0.125-0.191-0.213-0.416-0.37-0.573c-0.193-0.193-0.746-0.05-0.82,0.183
				c-0.24,0.751-0.36,1.522-0.33,2.311c0.006,0.149,0.111,0.293,0.171,0.44l0.02-0.054c-0.047,0.331,0.019,0.621,0.277,0.855
				c0.499,0.452,0.694,1.02,0.712,1.694c0.025,0.949,0.092,1.898,0.184,2.842c0.053,0.544,0.051,1.119,0.427,1.579
				c0.112,0.137,0.139,0.284,0.012,0.425c-0.258,0.288-0.248,0.604-0.005,0.849c0.465,0.467,0.623,0.896,0.026,1.363
				c-0.066,0.388-0.157,0.773-0.19,1.164c-0.021,0.246,0.11,0.459,0.351,0.57c0.248,0.114,0.422,0.269,0.145,0.506
				c-0.371,0.317-0.354,0.715-0.169,1.064c0.189,0.356,0.426,0.65,0.182,1.072c-0.412,0.711-0.318,1.332,0.294,1.915
				c0.2,0.19,0.007,0.478-0.225,0.571c-0.529,0.214-0.376,0.602-0.299,0.982l0.054-0.059c-0.073,0.22-0.234,0.453-0.204,0.659
				c0.26,1.792,0.607,3.565,1.202,5.283c0.257,0.742,0.464,1.495,0.394,2.313c-0.032,0.371,0.134,0.765,0.24,1.141
				c0.188,0.671,0.536,1.279,0.4,2.052c-0.073,0.414,0.118,0.96,0.364,1.329c0.675,1.014,0.899,2.16,1.16,3.307
				c0.139,0.611,0.344,1.207,0.469,1.821c0.081,0.396-0.013,0.784-0.336,1.075l0.069,0.03c-0.064-0.142-0.112-0.394-0.196-0.407
				c-0.299-0.046-0.191,0.303-0.332,0.432l0.048-0.043c-0.318-0.123-0.439-0.385-0.496-0.697c-0.072-0.389-0.233-0.718-0.604-0.91
				c-0.451-0.234-0.29-0.54-0.188-0.922c0.057-0.215-0.219-0.52-0.344-0.785l0.062,0.055c-0.276-0.368-0.529-0.724-0.298-1.236
				c0.087-0.192,0.03-0.449,0.039-0.676c0.06-0.044,0.114-0.115,0.18-0.127c0.228-0.043,0.266,0.031,0.089,0.165
				c-0.04,0.03-0.136-0.016-0.206-0.027c-0.32,0.226-0.652,0.437-0.952,0.686c-0.102,0.085-0.177,0.274-0.166,0.406
				c0.02,0.229,0.105,0.455,0.184,0.676c0.217,0.61,0.316,1.244,0.08,1.847c-0.308,0.79-0.248,1.582-0.003,2.324
				c0.572,1.734,0.723,3.559,1.231,5.306c0.507,1.742,0.864,3.531,1.42,5.257c0.389,1.208,0.681,2.423,0.906,3.666
				c0.098,0.541,0.29,1.066,0.461,1.591c0.342,1.052,0.623,2.105,0.526,3.235c-0.04,0.467,0.029,0.948,0.087,1.418
				c0.069,0.557,0.222,1.104,0.658,1.485c0.451,0.394,0.613,0.893,0.702,1.454c0.148,0.934,0.33,1.863,0.482,2.796
				c0.037,0.226,0.048,0.467,0.012,0.692c-0.1,0.62-0.231,1.234-0.344,1.824c-0.233,0.109-0.572,0.023-0.596,0.319
				c-0.133,1.657-0.112,3.305,0.244,4.944c0.167,0.769,0.244,1.559,0.344,2.342c0.101,0.786,0.202,1.561,0.706,2.223
				c0.45,0.591,0.532,1.305,0.58,2.02c0.053,0.797,0.192,1.567,0.654,2.242c0.483,0.706,0.223,1.547,0.42,2.305
				c0.111,0.429-0.192,0.743-0.332,1.102l0.049-0.06c-0.212-0.234-0.418-0.475-0.642-0.698c-0.033-0.033-0.197-0.005-0.212,0.031
				c-0.058,0.144-0.117,0.304-0.111,0.456c0.068,1.823,0.079,3.652,0.25,5.466c0.095,1.012,0.433,2.006,0.715,2.993
				c0.112,0.391,0.182,0.748,0.091,1.15c-0.08,0.355,0.322,0.548,0.376,0.813c0.155,0.757,0.337,1.531,0.011,2.313
				c-0.116,0.277-0.203,0.67-0.095,0.919c0.333,0.773-0.073,1.552,0.128,2.324c0.201,0.77,0.084,1.57,0.033,2.359
				c-0.02,0.307,0.031,0.627,0.096,0.931c0.246,1.168,0.382,2.353,0.224,3.532c-0.119,0.889,0.35,1.707,0.185,2.586
				c-0.023,0.124,0.09,0.292,0.176,0.416c0.257,0.371,0.531,0.73,0.81,1.109c0.29-0.423,0.186-0.827,0.217-1.216
				c0.032-0.391,0.017-0.855,0.221-1.149c0.516-0.746,0.363-1.469,0.224-2.271c-0.12-0.687,0.034-1.419-0.465-2.028
				c-0.07-0.086-0.053-0.372,0.026-0.433c0.394-0.305,0.197-0.659,0.203-1.035c0.009-0.516,0.035-1.069,0.281-1.56
				c0.171-0.34,0.022-0.613-0.205-0.842c-0.163-0.165-0.398-0.261-0.552-0.432c-0.077-0.086-0.047-0.272-0.05-0.413
				c0-0.01,0.129-0.02,0.197-0.034c0.143-0.029,0.38-0.023,0.411-0.099c0.116-0.287,0.153-0.606,0.242-0.906
				c0.095-0.322,0.316-0.497,0.635-0.634c0.456-0.197,0.497-0.438,0.154-0.597c-0.3-0.139-0.582-0.246-0.641-0.609
				c-0.149-0.925-0.324-1.847-0.424-2.778c-0.076-0.702-0.066-1.414-0.069-2.122c-0.001-0.296-0.188-0.371-0.392-0.493
				c-0.429-0.257-0.536-0.613-0.258-0.934c0.251-0.29,0.557-0.542,0.87-0.767c0.237-0.17,0.699-0.05,0.845,0.191
				c0.205,0.337,0.419,0.675,0.57,1.038c0.159,0.381,0.424,0.328,0.743,0.345c0.158,0.008,0.415,0.294,0.43,0.471
				c0.053,0.626,0.132,1.286-0.007,1.884c-0.204,0.881-0.103,1.73-0.037,2.597c0.011,0.146-0.064,0.3-0.108,0.484
				c-0.425-0.346-0.263-0.814-0.296-1.228c-0.031-0.394,0.007-0.798-0.061-1.185c-0.077-0.431,0.109-0.932-0.3-1.293
				c-0.248,0.367-0.151,0.776-0.138,1.16c0.033,1.029,0.11,2.057,0.159,3.087c0.021,0.441,0.248,0.67,0.617,0.909
				c0.491,0.319,0.577,0.903,0.603,1.473c0.01,0.227-0.001,0.549,0.135,0.661c0.588,0.486,0.601,1.073,0.418,1.724
				c-0.152,0.543-0.107,1.081-0.083,1.641c0.077,1.733,0.265,3.464,0.041,5.209c-0.108,0.839-0.193,1.732,0.244,2.554
				c0.161,0.302,0.007,0.603-0.103,0.907c-0.073,0.202-0.091,0.474-0.019,0.673c0.303,0.832,0.824,1.529,1.446,2.15l-0.062-0.057
				c0.121,0.289,0.247,0.576,0.362,0.867c0.119,0.3,0.172,0.579-0.081,0.87c-0.2,0.23-0.35,0.514-0.474,0.796
				c-0.094,0.214-0.109,0.484,0.096,0.65c0.403,0.329,0.708,0.64,0.217,1.144c-0.092,0.094-0.125,0.299-0.106,0.441
				c0.135,0.991-0.357,1.61-1.115,2.154c-0.389,0.279-0.724,0.606-1.224,0.647c-0.87,0.071-1.246,0.57-1.213,1.418
				c0.011,0.281-0.161,0.461-0.37,0.55c-0.36,0.153-0.752,0.23-1.121,0.366c-0.365,0.135-0.772,0.235-1.064,0.47
				c-0.704,0.567-1.517,0.825-2.366,1.028c-0.997,0.238-1.986,0.522-2.994,0.699c-0.693,0.121-1.434,0.222-2.113,0.101
				c-0.91-0.162-1.719,0.076-2.53,0.34c-0.98,0.32-1.954,0.609-2.991,0.658c-0.396,0.019-0.792,0.066-1.161-0.11
				c-0.535-0.254-1.076-0.184-1.621-0.067c-0.231,0.05-0.458,0.121-0.687,0.181c-0.652,0.171-1.243,0.08-1.773-0.374
				c-0.104-0.089-0.292-0.079-0.466-0.121c-0.321,0.819-0.962,1.158-1.811,1.229c-0.864,0.073-1.721,0.237-2.586,0.292
				c-0.704,0.045-1.437,0.094-2.115-0.055c-0.644-0.141-1.276-0.113-1.86,0.013c-1.707,0.367-3.442,0.3-5.159,0.47
				c-0.467,0.046-0.946,0.028-1.416-0.006c-0.787-0.057-1.57-0.148-2.359-0.031c-0.23,0.034-0.503,0.078-0.699-0.01
				c-0.971-0.438-2.042-0.053-3.024-0.415c-0.446-0.164-0.949-0.13-1.394,0.064c-0.981,0.428-2.025,0.217-3.035,0.33
				c-0.214,0.024-0.506-0.054-0.659-0.197c-0.596-0.558-1.19-0.566-1.936-0.283c-0.441,0.167-0.862-0.171-1.185-0.592
				c-0.321-0.419-0.905-0.469-1.246-0.143c-0.375,0.359-0.99,0.592-0.844,1.316c0.011,0.053-0.224,0.233-0.33,0.221
				c-1.274-0.144-2.501,0.261-3.758,0.303c-1.179,0.039-2.356,0.135-3.532,0.23c-1.255,0.102-2.509,0.331-3.73-0.23
				c-0.184-0.085-0.482-0.044-0.678,0.047c-0.594,0.274-1.219,0.31-1.849,0.341c-1.734,0.086-3.467,0.206-5.203,0.24
				c-1.1,0.021-2.208-0.04-3.303-0.151c-0.936-0.095-1.855-0.403-2.79-0.452c-0.867-0.046-1.726-0.094-2.587-0.219
				c-1.956-0.283-3.931-0.306-5.901-0.299c-1.016,0.004-2.034,0.084-3.03,0.422c-0.804,0.272-1.699,0.197-2.484,0.651
				c-0.315,0.182-0.77,0.182-1.156,0.164c-1.358-0.064-2.658,0.214-3.968,0.523c-1.062,0.251-2.116,0.678-3.249,0.432
				c-2.062,0.521-4.243,0.237-6.28,0.941c-0.292,0.101-0.618,0.136-0.929,0.14c-2.448,0.034-4.872,0.384-7.309,0.559
				c-0.946,0.068-1.889-0.213-2.821,0.044c-0.858,0.237-1.723,0.107-2.586,0.071c-0.155-0.006-0.309-0.054-0.487-0.087
				c-0.14-0.162-0.282-0.349-0.448-0.512c-0.2-0.197-0.458-0.164-0.553,0.088c-0.082,0.215-0.065,0.515-0.35,0.544
				c-0.214,0.022-0.454-0.053-0.657-0.142c-0.132-0.058-0.206-0.237-0.328-0.334c-0.257-0.205-0.601-0.376-0.865-0.167
				c-0.887,0.702-1.906,0.636-2.931,0.626c-0.727-0.007-1.277-0.714-2.021-0.545c-0.607,0.138-1.177,0.479-1.786,0.559
				c-0.609,0.08-1.241-0.031-1.864,0.081c-0.223,0.04-0.466-0.076-0.578-0.32c-0.099-0.215-0.166-0.445-0.268-0.658
				c-0.146-0.307-0.414-0.501-0.731-0.543c-0.704-0.095-1.412-0.104-2.112,0.073c-0.307,0.077-0.569,0.37-0.539,0.67
				c0.024,0.236,0.058,0.474,0.118,0.703c0.202,0.773-0.351,1.016-0.922,0.956c-0.667-0.07-1.217-0.336-1.386-1.06
				c-0.023-0.099,0.13-0.342,0.19-0.338c0.229,0.014,0.449,0.127,0.679,0.157c0.329,0.043,0.625-0.149,0.741-0.456
				c0.024-0.065,0.008-0.202-0.034-0.226c-0.477-0.274-1.02-0.325-1.546-0.43c-0.693,0.424-1.531,0.296-2.255,0.598
				c-0.066,0.028-0.147,0.1-0.157,0.163c-0.01,0.065,0.038,0.177,0.094,0.208c0.275,0.151,0.569,0.268,0.842,0.423
				c0.246,0.14,0.341,0.456,0.196,0.593c-0.111,0.104-0.242,0.247-0.374,0.257c-0.543,0.043-1.107,0.134-1.633,0.04
				c-1.573-0.283-3.146-0.184-4.72-0.11c-0.812,0.038-1.578-0.064-2.26-0.529c-0.541-0.369-1.141-0.493-1.776-0.583
				c-0.778-0.109-1.548-0.291-2.312-0.479c-0.213-0.053-0.393-0.24-0.589-0.366c0.609-0.083,1.217-0.181,1.828-0.243
				c0.486-0.049,0.856-0.302,1.214-0.606c-0.351-0.198-0.755-0.138-1.114-0.241c-0.781-0.224-1.328,0.139-1.857,0.617l-0.081-0.052
				l0.137,0.02C100.681,215.965,100.661,216.153,100.641,216.342z M76.782,128.066c0.85-0.401,1.002-0.613,0.899-1.368
				c-0.03-0.222-0.13-0.449-0.252-0.639c-0.07-0.108-0.247-0.151-0.383-0.206c-0.011-0.005-0.102,0.114-0.107,0.178
				c-0.05,0.699-0.09,1.398-0.132,2.097c0.007,0.073,0.019,0.145,0.018,0.218c-0.001,0.051-0.02,0.102-0.03,0.153
				C76.791,128.355,76.786,128.211,76.782,128.066z M67.265,144.507c-0.233,0.196-0.602,0.351-0.673,0.595
				c-0.218,0.744-0.58,1.465-0.519,2.273c0.005,0.069,0.067,0.149,0.125,0.193c0.03,0.023,0.142-0.002,0.165-0.038
				c0.597-0.937,1.066-1.911,0.844-3.076L67.265,144.507z M49.5,150.51l-0.05,0.05c-0.088-0.385-0.171-0.755,0.057-1.139
				c0.292-0.491,0.401-1.03,0.22-1.596c-0.022-0.071-0.085-0.181-0.13-0.182c-0.132-0.001-0.351,0.004-0.384,0.076
				c-0.356,0.789-0.7,1.574-0.691,2.481c0.005,0.545-0.112,1.1-0.241,1.634c-0.299,1.247-0.368,2.487-0.08,3.747
				c0.087,0.381,0.057,0.789,0.132,1.174c0.039,0.201,0.191,0.38,0.301,0.587c0.273-0.368,0.322-0.754,0.314-1.156
				c-0.013-0.71-0.068-1.422-0.024-2.128c0.044-0.696,0.057-1.42,0.697-1.932c0.225-0.18,0.039-0.409-0.151-0.58
				C49.085,151.198,49.244,150.849,49.5,150.51z M44.467,132.625c-0.087,0.194-0.198,0.382-0.247,0.586
				c-0.014,0.056,0.154,0.157,0.239,0.238c0.086-0.093,0.227-0.176,0.248-0.283c0.046-0.231-0.071-0.411-0.3-0.5
				c0.403-0.361,0.855-0.689,0.778-1.339c-0.018-0.152,0.028-0.312,0.041-0.468c0.153-1.815-0.209-3.59-0.443-5.373
				c-0.046-0.349-0.435-0.397-0.733-0.478c-0.253-0.068-0.483,0.12-0.46,0.365c0.036,0.396,0.113,0.766,0.436,1.045
				c0.177,0.153,0.331,0.344,0.123,0.582c-0.275,0.315-0.35,0.687-0.342,1.089c0.014,0.704,0.003,1.409,0.047,2.111
				c0.039,0.623,0.112,1.247,0.227,1.86C44.119,132.264,44.333,132.437,44.467,132.625z M43.379,155.68
				c0.008,0,0.017-0.001,0.025-0.001c-0.011-0.238,0.003-0.48-0.039-0.712c-0.215-1.188-0.049-2.36,0.082-3.541
				c0.121-1.1,0.359-2.191,0.293-3.311c-0.11-1.899-0.032-3.809-0.361-5.694c-0.027-0.155-0.093-0.328-0.052-0.466
				c0.261-0.877,0.137-1.711-0.218-2.531c-0.147-0.341,0.128-0.592,0.194-0.887c0.048-0.218,0.106-0.525-0.002-0.672
				c-0.612-0.835-0.569-1.745-0.475-2.706c0.161-1.646,0.282-3.299-0.214-4.925c-0.09-0.295-0.055-0.629-0.078-0.945
				c-0.039-0.55-0.085-1.1-0.112-1.651c-0.01-0.203-0.079-0.301-0.267-0.251c-0.066,0.017-0.156,0.099-0.163,0.159
				c-0.248,2.126-0.44,4.255-0.45,6.401c-0.006,1.256-0.137,2.512-0.212,3.768c-0.432,0.635-0.24,1.391-0.4,2.079
				c-0.161,0.693-0.387,1.375-0.498,2.076c-0.147,0.936-0.289,1.868-0.277,2.834c0.017,1.342-0.088,2.693-0.528,3.989
				c-0.1,0.295-0.16,0.615-0.179,0.926c-0.134,2.211-0.718,4.371-0.69,6.604c0.006,0.479-0.051,0.828,0.304,1.271
				c0.458,0.571,0.295,1.338,0.061,2.025c-0.452,0.291-0.504,0.778-0.595,1.243c-0.332,1.706-0.66,3.414-0.988,5.121
				c-0.126,0.656-0.183,2.819-0.112,3.479c0.025,0.232,0.022,0.471-0.006,0.702c-0.171,1.406-0.355,2.811-0.528,4.217
				c-0.038,0.314-0.055,0.63-0.067,0.946c-0.016,0.401,0.381,0.786,0.762,0.695c0.454-0.108,0.901-0.262,1.335-0.435
				c0.238-0.094,0.318-0.328,0.241-0.58c-0.069-0.226-0.159-0.442,0.192-0.497c0.227-0.036,0.484-0.159,0.674-0.091
				c0.368,0.13,0.632,0.159,0.569-0.322c-0.083-0.636-0.179-1.224,0.236-1.823c0.203-0.293,0.273-0.779,0.206-1.141
				c-0.194-1.047-0.06-2.017,0.26-3.027c0.26-0.819,0.29-1.712,0.423-2.572c0.06-0.391,0.042-0.817,0.197-1.165
				c0.33-0.743,0.292-1.554,0.524-2.309c0.256-0.833,0.494-1.672,0.752-2.505c0.213-0.689,0.325-1.385,0.265-2.109
				C43.418,156.79,43.406,156.235,43.379,155.68z M45.391,115.824c0.119,1.782,0.235,3.596,0.37,5.409
				c0.008,0.107,0.166,0.204,0.255,0.305c0.054-0.058,0.15-0.112,0.154-0.173c0.022-0.314,0.026-0.63,0.026-0.945
				c0.001-0.935-0.014-1.862,0.492-2.718c0.143-0.243,0.101-0.602,0.123-0.91c0.051-0.705,0.09-1.411,0.134-2.117
				c0.569-0.578,0.382-1.311,0.418-2.003c0.016-0.304,0.116-0.604,0.177-0.906c-0.452-0.335-0.265-0.732-0.218-1.196
				c0.142-1.409,0.225-2.832,0.202-4.247c-0.035-2.132-0.175-4.263-0.277-6.394c-0.032-0.666-0.384-0.977-1.052-0.892
				c-0.212,0.027-0.482,0.152-0.589,0.32c-0.208,0.325-0.295,0.727-0.479,1.072c-0.283,0.533-0.251,1.062-0.06,1.604
				c0.052,0.149,0.121,0.292,0.172,0.442c0.208,0.607,0.39,1.216-0.03,1.813c0.024,0.941-0.163,1.879-0.059,2.82
				c0.06,0.546,0.096,1.114,0.282,1.621c0.244,0.666-0.192,1.216-0.157,1.852C45.371,112.314,45.359,114.054,45.391,115.824z
				 M246.079,159.797c-0.083,0.111-0.229,0.216-0.239,0.333c-0.045,0.551-0.019,1.108-0.081,1.656
				c-0.125,1.115-0.095,2.204,0.211,3.296c0.147,0.525,0.165,1.096,0.177,1.648c0.046,2.153,0.388,4.257,1.026,6.309
				c0.12,0.386,0.157,0.761,0.177,1.158c0.056,1.106,0.153,2.21,0.249,3.314c0.048,0.551,0.093,1.108,0.213,1.645
				c0.066,0.293,0.281,0.554,0.442,0.821c0.037,0.062,0.151,0.144,0.188,0.126c0.133-0.063,0.341-0.151,0.356-0.254
				c0.187-1.26,0.098-2.5-0.232-3.739c-0.2-0.752-0.594-1.526-0.412-2.293c0.22-0.927-0.612-1.409-0.692-2.175
				c-0.016-0.157-0.06-0.318-0.039-0.47c0.075-0.557,0.077-1.116-0.099-1.645c-0.219-0.657,0.149-1.244,0.134-1.865
				c-0.007-0.286-0.25-0.572-0.237-0.851c0.014-0.298,0.23-0.58,0.311-0.882c0.06-0.225,0.062-0.471,0.059-0.707
				c-0.01-0.713-0.08-1.428-0.046-2.138C247.61,161.726,247.079,160.662,246.079,159.797z M53.481,137.864
				c0.435-1.082,0.645-2.163,0.962-3.206c0.44-1.446,0.686-2.915,0.489-4.439c-0.06-0.466-0.004-0.947-0.006-1.421
				c-0.002-0.394,0.056-0.803-0.029-1.179c-0.385-1.711-0.402-3.453-0.517-5.188c-0.03-0.461,0.044-0.96-0.353-1.416
				c-0.082,0.229-0.198,0.418-0.212,0.615c-0.121,1.814-0.217,3.629-0.338,5.443c-0.042,0.631-0.09,1.266-0.207,1.885
				c-0.281,1.482-0.399,2.974-0.406,4.479c-0.002,0.474,0.006,0.957-0.075,1.421C52.606,135.922,52.818,136.88,53.481,137.864z
				 M242.636,138.214c-0.214,1.605-0.148,3.462,0.141,4.467c0.022,0.076,0.051,0.149,0.077,0.224
				c0.673,1.933,1.29,3.888,2.109,5.765c0.182,0.418,0.271,0.906,0.67,1.212c0.052-0.139,0.163-0.282,0.146-0.408
				c-0.148-1.084-0.037-2.218-0.59-3.227c0.037-1.403-0.654-2.776-0.172-4.201c0.046-0.137,0.018-0.32-0.029-0.464
				c-0.046-0.137-0.136-0.313-0.252-0.361c-0.289-0.12-0.584-0.198-0.683-0.552c-0.131-0.464-0.4-0.844-0.694-1.223
				C243.086,139.095,242.902,138.677,242.636,138.214z M67.263,169.819c0.052,1.068,0.088,1.618,0.102,2.168
				c0.01,0.394-0.031,0.79-0.004,1.182c0.009,0.13,0.134,0.296,0.252,0.361c0.109,0.06,0.317,0.06,0.415-0.009
				c0.188-0.132,0.298-0.392,0.494-0.49c0.521-0.262,0.586-0.706,0.549-1.196c-0.023-0.313-0.08-0.628-0.167-0.929
				c-0.037-0.127-0.184-0.305-0.292-0.313c-0.584-0.043-0.632-0.525-0.525-0.846c0.287-0.865,0.199-1.674,0.031-2.547
				c-0.128-0.667-0.163-1.387,0.127-2.088c0.206-0.499,0.263-1.067,0.335-1.612c0.051-0.389,0.019-0.789,0.016-1.185
				c-0.002-0.283-0.261-0.621-0.38-0.514c-0.109,0.097-0.244,0.22-0.269,0.35c-0.227,1.156-0.205,2.343-0.548,3.494
				c-0.221,0.742-0.347,1.584-0.228,2.335C67.295,168.77,67.222,169.556,67.263,169.819z M72.104,122.402
				c-0.068-0.556-0.14-1.261-0.254-1.958c-0.019-0.115-0.213-0.214-0.344-0.289c-0.039-0.023-0.15,0.045-0.207,0.095
				c-0.301,0.264-0.591,0.572-0.588,0.983c0.003,0.407-0.108,0.773-0.182,1.158c-0.149,0.774-0.318,1.563-0.311,2.344
				c0.01,1.177,0.163,2.353,0.262,3.529c0.006,0.07,0.063,0.148,0.118,0.199c0.051,0.048,0.128,0.084,0.196,0.09
				c0.063,0.005,0.176-0.022,0.189-0.061c0.172-0.516,0.234-1.099,0.517-1.54c0.363-0.566,0.467-1.176,0.529-1.789
				C72.113,124.299,72.082,123.424,72.104,122.402z M73.634,108.613c0.077,0.641,0.112,1.107,0.203,1.562
				c0.019,0.096,0.234,0.194,0.37,0.216c0.318,0.052,0.689-0.203,0.722-0.457c0.04-0.307,0.098-0.623,0.068-0.927
				c-0.079-0.788-0.149-1.568,0.202-2.314c0.561-1.191,0.441-2.446,0.342-3.7c-0.014-0.18-0.38-0.339-0.54-0.214
				c-0.179,0.14-0.428,0.294-0.475,0.484c-0.206,0.834-0.255,1.708-0.665,2.488C73.821,106.766,73.396,107.756,73.634,108.613z
				 M109.892,213.087c-0.397,0.019-0.864,0.024-1.327,0.073c-0.186,0.019-0.27,0.194-0.2,0.355c0.055,0.126,0.158,0.238,0.26,0.334
				c0.049,0.046,0.148,0.059,0.222,0.054c1.264-0.096,2.501,0.075,3.743,0.305c0.768,0.143,1.566,0.142,2.351,0.166
				c0.221,0.007,0.458-0.106,0.665-0.21c0.129-0.064,0.29-0.206,0.303-0.327c0.013-0.121-0.11-0.319-0.226-0.381
				c-0.555-0.294-1.131-0.515-1.786-0.442c-0.464,0.052-0.963,0.168-1.394,0.053C111.641,212.837,110.811,212.717,109.892,213.087z
				 M61.644,133.645c0.074,0.261,0.128,0.485,0.204,0.702c0.02,0.056,0.102,0.099,0.164,0.13c0.171,0.087,0.324,0.056,0.399-0.103
				c0.163-0.35,0.427-0.706,0.436-1.065c0.029-1.09-0.035-2.183-0.088-3.273c-0.005-0.099-0.174-0.231-0.293-0.274
				c-0.17-0.06-0.299,0.048-0.365,0.221C61.648,131.178,61.91,132.455,61.644,133.645z M222.688,128.765
				c-0.003,0.156-0.042,0.323-0.002,0.467c0.432,1.571,0.806,3.155,1.053,4.767c0.02,0.132,0.155,0.273,0.273,0.355
				c0.118,0.082,0.307,0.163,0.421,0.122c0.111-0.039,0.199-0.225,0.238-0.364c0.04-0.144,0.043-0.317,0.005-0.462
				c-0.177-0.679-0.353-1.359-0.567-2.026c-0.309-0.962-0.643-1.915-0.988-2.865c-0.035-0.097-0.221-0.137-0.338-0.204
				C222.751,128.626,222.719,128.695,222.688,128.765z M113.862,215.678c0.448,0.003,0.996,0.018,1.543,0.003
				c0.228-0.006,0.457-0.064,0.68-0.122c0.184-0.048,0.271-0.198,0.2-0.371c-0.052-0.127-0.179-0.325-0.26-0.319
				c-0.383,0.03-0.764,0.183-1.142,0.172c-0.78-0.021-1.558-0.126-2.338-0.183c-0.464-0.034-0.933-0.134-1.388,0.059
				c-0.181,0.076-0.227,0.2-0.157,0.388c0.157,0.421,0.483,0.638,0.9,0.613C112.522,215.882,113.14,215.771,113.862,215.678z
				 M42.61,169.978c-0.152,0.664-0.293,1.254-0.422,1.848c-0.066,0.301-0.146,0.606-0.156,0.911
				c-0.009,0.303,0.046,0.613,0.106,0.913c0.038,0.19,0.191,0.269,0.333,0.189c0.65-0.367,1.035-0.935,1.003-1.682
				C43.442,171.351,43.299,171.103,42.61,169.978z M51.86,105.615c0.097-0.117,0.251-0.22,0.282-0.353
				c0.349-1.462,0.424-2.93,0.029-4.398c-0.013-0.047-0.127-0.091-0.195-0.094c-0.172-0.008-0.28,0.096-0.27,0.276
				c0.072,1.23,0.168,2.456-0.042,3.686C51.615,105.022,51.626,105.358,51.86,105.615z M216.787,174.56
				c-0.11,0.756,0.559,1.295,0.846,1.989c0.021,0.051,0.172,0.107,0.205,0.083c0.111-0.083,0.208-0.192,0.284-0.309
				c0.036-0.056,0.023-0.154,0.014-0.23c-0.103-0.862-0.56-1.612-0.772-2.441c-0.014-0.056-0.11-0.107-0.178-0.129
				c-0.18-0.057-0.303,0.024-0.328,0.225C216.827,173.981,216.836,174.22,216.787,174.56z M237.641,145.09
				c0.049,0.346,0.096,0.811,0.192,1.266c0.023,0.11,0.198,0.252,0.313,0.26c0.108,0.008,0.302-0.119,0.33-0.222
				c0.217-0.798,0.068-1.538-0.431-2.199c-0.035-0.046-0.132-0.081-0.187-0.067c-0.066,0.017-0.161,0.086-0.169,0.143
				C237.66,144.502,237.659,144.737,237.641,145.09z M243.07,131.235c-0.029,1.073,0.321,2.027,0.669,2.981
				c0.017,0.046,0.119,0.071,0.186,0.084c0.161,0.034,0.29-0.055,0.292-0.249c0.01-1.04-0.484-1.959-0.727-2.939
				c-0.027-0.109-0.19-0.184-0.29-0.275C243.152,130.981,243.105,131.125,243.07,131.235z M222.337,118.827
				c-0.056,0.291-0.171,0.523-0.125,0.716c0.198,0.832,0.434,1.656,0.681,2.475c0.04,0.133,0.196,0.238,0.313,0.338
				c0.051,0.043,0.14,0.057,0.212,0.057c0.165,0,0.302-0.119,0.25-0.283C223.322,121.028,223.087,119.879,222.337,118.827z
				 M50.584,140.42c-0.019-0.403-0.041-0.936-0.077-1.469c-0.004-0.061-0.105-0.171-0.146-0.164
				c-0.132,0.021-0.358,0.068-0.371,0.138c-0.188,1-0.137,2,0.084,2.99c0.013,0.058,0.111,0.13,0.174,0.135
				c0.058,0.004,0.169-0.068,0.175-0.117C50.481,141.475,50.523,141.015,50.584,140.42z M56.184,103.893
				c0.118-0.089,0.322-0.163,0.34-0.27c0.064-0.379,0.116-0.776,0.068-1.153c-0.024-0.188-0.256-0.367-0.425-0.515
				c-0.143-0.125-0.307-0.07-0.392,0.106c-0.306,0.635-0.125,1.218,0.216,1.774C56.017,103.879,56.118,103.875,56.184,103.893z
				 M44.278,136.262c0.026,0.149,0.038,0.301,0.079,0.445c0.06,0.21,0.342,0.327,0.549,0.241c0.453-0.187,0.582-0.695,0.284-1.121
				c-0.173-0.248-0.627-0.244-0.772,0.019C44.349,135.972,44.323,136.122,44.278,136.262z M218.109,177.796
				c-0.087,0.09-0.171,0.136-0.179,0.192c-0.142,0.946-0.051,1.887,0.092,2.824c0.013,0.087,0.174,0.151,0.267,0.226
				c0.043-0.066,0.127-0.133,0.124-0.197c-0.033-0.789-0.069-1.578-0.128-2.365C218.268,178.253,218.174,178.036,218.109,177.796z
				 M183.566,161.066c0.087,0.283,0.105,0.45,0.186,0.573c0.074,0.112,0.217,0.178,0.33,0.264c0.043-0.057,0.11-0.108,0.125-0.172
				c0.162-0.687,0.229-1.374-0.007-2.063c-0.065-0.19-0.146-0.285-0.272-0.23c-0.061,0.026-0.134,0.097-0.144,0.157
				C183.698,160.127,183.624,160.66,183.566,161.066z M79.488,158.57c0.095-0.03,0.19-0.033,0.239-0.082
				c0.164-0.165,0.301-0.359,0.468-0.521c0.537-0.523,0.331-0.747-0.042-1.177c-0.133-0.153-0.289-0.134-0.38,0.031
				C79.47,157.367,79.177,157.919,79.488,158.57z M229.529,151.114c-0.225,1.301-0.224,1.327,0.241,2.826
				c-0.062-0.906,0.262-1.815-0.092-2.717C229.658,151.175,229.58,151.15,229.529,151.114z M64.706,155.609
				c0.009,0.191-0.017,0.361,0.035,0.503c0.044,0.123,0.176,0.214,0.27,0.319c0.093-0.106,0.225-0.197,0.268-0.32
				c0.049-0.141,0.034-0.311,0.022-0.466c-0.024-0.317-0.31-0.584-0.422-0.417C64.794,155.352,64.752,155.504,64.706,155.609z
				 M254.875,183.17c-0.095,0.475-0.194,0.687-0.165,0.878c0.094,0.615,0.043,1.218-0.025,1.828
				c-0.022,0.195,0.119,0.272,0.26,0.193c0.057-0.032,0.134-0.101,0.133-0.152C255.073,185.09,255.172,184.253,254.875,183.17z
				 M233.378,75.433c-0.221,0.122-0.445,0.205-0.607,0.355c-0.065,0.06-0.049,0.327,0.025,0.399c0.335,0.323,1.015,0.306,1.26-0.03
				c0.06-0.082,0.02-0.335-0.061-0.403C233.828,75.612,233.601,75.543,233.378,75.433z M49.96,135.508
				c0.319-0.47,0.344-0.981,0.211-1.502c-0.022-0.087-0.196-0.146-0.31-0.188c-0.026-0.01-0.13,0.098-0.143,0.162
				C49.616,134.514,49.602,135.037,49.96,135.508z M61.999,116.785c0.183,0.097,0.382,0.172,0.542,0.297
				c0.158,0.124,0.292,0.157,0.32,0.001c0.021-0.115-0.05-0.326-0.139-0.368c-0.184-0.086-0.406-0.093-0.615-0.116
				C62.084,116.598,62.048,116.7,61.999,116.785z M82.978,160.782c0.308-0.144,0.323-0.451,0.373-0.72
				c0.032-0.173-0.097-0.278-0.265-0.261c-0.062,0.006-0.147,0.053-0.174,0.106C82.762,160.204,82.837,160.493,82.978,160.782z
				 M118.224,210.847c0.003,0.045,0.006,0.091,0.009,0.136c0.446,0.006,0.892,0.017,1.339,0.013c0.063-0.001,0.126-0.072,0.19-0.111
				c-0.082-0.071-0.169-0.209-0.244-0.203C119.084,210.718,118.655,210.788,118.224,210.847z M109.661,216.858
				c0.061-0.003-0.018-0.016-0.085,0.008c-0.135,0.047-0.283,0.09-0.39,0.178c-0.113,0.094,0.174,0.329,0.47,0.377
				c0.24,0.039,0.432-0.024,0.575-0.228C110.354,217.015,110.162,216.867,109.661,216.858z M215.803,193.75
				c0.022,0.398,0.152,0.625,0.225,0.473c0.062-0.129,0.076-0.29,0.077-0.438c0.003-0.393-0.141-0.638-0.221-0.468
				C215.824,193.446,215.828,193.605,215.803,193.75z M215.274,178.967c0.024-0.589,0.041-0.815,0.039-1.04
				c-0.001-0.073-0.051-0.145-0.078-0.218c-0.056,0.096-0.164,0.194-0.159,0.287C215.087,178.203,215.154,178.407,215.274,178.967z
				 M184.798,156.662c-0.221,0.347-0.107,0.694-0.012,1.045C184.958,157.359,184.85,157.012,184.798,156.662z M222.57,150.633
				c0.018,0.071,0.015,0.158,0.057,0.209c0.084,0.105,0.192,0.191,0.29,0.285c0.071-0.121,0.194-0.24,0.201-0.365
				c0.012-0.213-0.04-0.432-0.085-0.644c-0.012-0.058-0.124-0.152-0.137-0.144c-0.102,0.063-0.23,0.131-0.273,0.23
				C222.568,150.33,222.585,150.488,222.57,150.633z M237.751,141.674c-0.117,0.045-0.213,0.052-0.256,0.104
				c-0.25,0.306-0.216,0.537,0.111,0.787c0.055,0.042,0.143,0.07,0.209,0.061c0.17-0.023,0.245-0.149,0.186-0.329
				C237.931,142.085,237.835,141.881,237.751,141.674z M230.701,80.835c0.033,0.068,0.052,0.18,0.102,0.197
				c0.163,0.053,0.219-0.053,0.129-0.261c-0.024-0.055-0.107-0.083-0.163-0.124C230.746,80.709,230.724,80.772,230.701,80.835z
				 M242.588,173.586c0.056-0.048,0.136-0.085,0.165-0.147c0.14-0.296,0.096-0.505-0.129-0.604c-0.06-0.027-0.185-0.017-0.219,0.025
				c-0.165,0.207-0.14,0.436-0.002,0.648C242.434,173.554,242.525,173.561,242.588,173.586z M53.171,102.76
				c-0.044,0.02-0.127,0.043-0.126,0.06c0.014,0.204,0.04,0.407,0.063,0.61c0.046-0.02,0.129-0.034,0.132-0.059
				c0.017-0.14,0.025-0.283,0.015-0.424C53.251,102.883,53.2,102.823,53.171,102.76z M101.579,213.621
				c0.064,0.026,0.126,0.064,0.193,0.076c0.07,0.012,0.145,0.006,0.215-0.006c0.069-0.011,0.151-0.022,0.201-0.064
				c0.115-0.095-0.18-0.178-0.474-0.112C101.664,213.526,101.624,213.584,101.579,213.621z M223.359,123.509
				c0.011,0.077,0.01,0.157,0.034,0.23c0.063,0.193,0.197,0.251,0.382,0.169c0.168-0.074,0.251-0.216,0.169-0.369
				c-0.064-0.12-0.186-0.241-0.31-0.288C223.487,123.194,223.381,123.317,223.359,123.509z M254.405,197.115
				c0.011,0.074,0.003,0.159,0.037,0.219c0.093,0.166,0.243,0.197,0.376,0.06c0.096-0.099,0.193-0.239,0.206-0.369
				c0.017-0.169-0.133-0.263-0.294-0.191C254.605,196.891,254.512,197.018,254.405,197.115z M53.719,147.358
				c-0.034,0.314,0.124,0.574,0.216,0.415c0.065-0.111,0.085-0.261,0.085-0.394c0-0.187-0.097-0.267-0.218-0.2
				C53.755,147.204,53.726,147.294,53.719,147.358z M240.162,165.129c0.046-0.035,0.116-0.063,0.132-0.109
				c0.021-0.059,0.025-0.16-0.011-0.197c-0.117-0.12-0.209-0.067-0.217,0.132C240.064,165.012,240.128,165.071,240.162,165.129z
				 M109.035,215.176c0.039,0.058,0.065,0.138,0.119,0.168c0.06,0.033,0.149,0.039,0.218,0.023c0.185-0.041,0.269-0.149,0.21-0.277
				c-0.024-0.052-0.133-0.111-0.183-0.096C109.272,215.034,109.156,215.113,109.035,215.176z M239.395,149.364
				c0.036-0.033,0.092-0.061,0.105-0.102c0.017-0.057,0.027-0.146-0.005-0.183c-0.099-0.118-0.174-0.07-0.173,0.118
				C239.321,149.252,239.369,149.308,239.395,149.364z M224.591,136.299c0.047-0.042,0.12-0.077,0.136-0.129
				c0.02-0.065,0.021-0.174-0.019-0.212c-0.139-0.131-0.229-0.071-0.215,0.148C224.497,136.172,224.557,136.235,224.591,136.299z
				 M244.437,135.451c-0.03,0.064-0.085,0.13-0.081,0.193c0.003,0.063,0.062,0.174,0.1,0.175c0.156,0.006,0.211-0.109,0.135-0.29
				C244.574,135.488,244.49,135.476,244.437,135.451z M45.727,148.176c-0.209-0.018-0.458,0.249-0.39,0.426
				c0.022,0.057,0.082,0.119,0.139,0.14c0.231,0.086,0.453-0.026,0.453-0.253C45.929,148.385,45.799,148.28,45.727,148.176z
				 M50.544,148.133c0.048-0.046,0.14-0.099,0.135-0.138c-0.019-0.128-0.073-0.251-0.114-0.376c-0.047,0.05-0.139,0.105-0.134,0.148
				C50.448,147.892,50.503,148.012,50.544,148.133z M79.458,163.241c0.035-0.044,0.104-0.092,0.104-0.141
				c0-0.059-0.048-0.159-0.092-0.169c-0.174-0.041-0.252,0.051-0.192,0.226C79.292,163.197,79.386,163.209,79.458,163.241z
				 M222.912,80.179c-0.074,0.014-0.158,0.012-0.219,0.048c-0.06,0.036-0.098,0.111-0.145,0.169c0.12,0.076,0.239,0.211,0.359,0.211
				c0.124,0.001,0.249-0.129,0.373-0.202C223.158,80.329,223.035,80.254,222.912,80.179z M199.107,213.103l-0.009,0.152l0.172-0.071
				L199.107,213.103z M200.366,212.609c0.018,0.045,0.034,0.127,0.053,0.127c0.055,0.002,0.111-0.029,0.166-0.046
				c-0.018-0.044-0.033-0.123-0.053-0.124C200.478,212.562,200.422,212.592,200.366,212.609z M254.915,200.897l-0.009,0.119
				l0.147-0.054L254.915,200.897z M231.129,183.259c-0.048,0.016-0.096,0.031-0.145,0.047c0.019,0.054,0.03,0.115,0.064,0.158
				c0.009,0.012,0.121-0.024,0.123-0.044C231.176,183.368,231.146,183.313,231.129,183.259z M186.497,175.596
				c-0.054-0.015-0.109-0.043-0.161-0.037c-0.021,0.002-0.033,0.08-0.049,0.123c0.054,0.015,0.11,0.043,0.162,0.038
				C186.469,175.718,186.481,175.639,186.497,175.596z M242.513,172.003c0.018-0.055,0.064-0.117,0.05-0.163
				c-0.057-0.193-0.153-0.204-0.239-0.027c-0.02,0.042,0.009,0.127,0.044,0.17C242.39,172.011,242.463,171.998,242.513,172.003z
				 M184.608,171.339l-0.073-0.15l-0.057,0.155L184.608,171.339z M230.016,160.672c-0.05,0.06-0.123,0.112-0.147,0.181
				c-0.061,0.181,0.009,0.324,0.191,0.379c0.032,0.01,0.155-0.123,0.143-0.162C230.163,160.931,230.082,160.803,230.016,160.672z
				 M240.477,152.139l0.083,0.163l0.067-0.169L240.477,152.139z M82.618,149.092c-0.05,0.028-0.1,0.055-0.15,0.083
				c0.087,0.126,0.184,0.131,0.29,0.015C82.711,149.157,82.664,149.124,82.618,149.092z M44.766,134.431
				c-0.054,0.018-0.107,0.035-0.161,0.053c0.022,0.061,0.031,0.132,0.071,0.176c0.015,0.017,0.1-0.03,0.153-0.047
				C44.808,134.552,44.787,134.492,44.766,134.431z M96.353,213.375l0.115,0.076l0.016-0.12L96.353,213.375z M223.195,159.098
				l0.143,0.079l0.005-0.148L223.195,159.098z M117.768,215.188c0.091,0.179,0.186,0.18,0.261-0.006
				c0.009-0.022-0.083-0.12-0.128-0.12C117.856,215.062,117.812,215.143,117.768,215.188z M144.171,160.45l-0.081,0.128l0.132,0.015
				L144.171,160.45z"/>
			<path style="fill:#001C33;" d="M248.031,133.681c-0.161-0.159-0.415-0.292-0.469-0.482c-0.324-1.139-0.596-2.292-0.897-3.438
				c-0.181-0.689-0.35-1.381-0.926-1.886c-0.171-0.15-0.199-0.397-0.116-0.656c0.188-0.59,0.019-1.086-0.465-1.479
				c-0.273-0.221-0.294-0.53-0.277-0.859c0.007-0.135-0.041-0.315-0.132-0.408c-0.558-0.57-0.585-1.28-0.517-1.997
				c0.045-0.47,0.178-0.932,0.272-1.397l-0.048,0.043c0.176-0.008,0.352-0.016,0.528-0.025l-0.069-0.03
				c0.355,0.29,0.761,0.534,0.852,1.048c0.04,0.228,0.085,0.465,0.184,0.67c0.422,0.866,0.572,1.746,0.349,2.706
				c-0.107,0.46,0.081,0.915,0.38,1.298l-0.059-0.053c0.174,0.344,0.416,0.671,0.501,1.036c0.084,0.356-0.12,0.809,0.022,1.118
				c0.612,1.33,0.279,2.856,0.918,4.175c0.083,0.171-0.052,0.447-0.087,0.675L248.031,133.681z"/>
			<path style="fill:#001C33;" d="M253.403,162.133c0.003,0.066,0.046,0.231,0.013,0.378c-0.234,1.032-0.189,2.035,0.24,3.014
				c0.062,0.142,0.13,0.326,0.091,0.46c-0.207,0.715,0.102,1.374,0.154,2.057c0.05,0.657,0.192,1.223,0.535,1.763
				c0.024,0.038-0.043,0.196-0.072,0.197c-0.137,0.006-0.359,0.025-0.401-0.048c-0.393-0.675-0.767-1.363-1.12-2.061
				c-0.101-0.199-0.175-0.444-0.159-0.661c0.028-0.392,0.159-0.776,0.2-1.169c0.076-0.717,0.053-1.42-0.317-2.08
				c-0.404-0.72-0.443-1.507-0.344-2.311c0.04-0.323,0.347-0.617,0.633-0.564c0.251,0.047,0.399,0.223,0.461,0.463
				C253.355,161.725,253.366,161.886,253.403,162.133z"/>
			<path style="fill:#001C33;" d="M249.816,143.29c0.61-0.228,0.842-0.195,0.946,0.162c0.194,0.671,0.51,1.344,0.522,2.021
				c0.017,0.96,0.317,1.835,0.51,2.743c0.096,0.453-0.186,0.739-0.664,0.639c-0.124-0.026-0.309-0.142-0.324-0.239
				c-0.058-0.382-0.071-0.772-0.081-1.16c-0.019-0.755,0.216-1.561-0.465-2.172c-0.131-0.684-0.262-1.367-0.393-2.051
				L249.816,143.29z"/>
			<path style="fill:#001C33;" d="M241.08,88.091c-0.019-0.383-0.042-0.766-0.053-1.149c-0.005-0.182,0.272-0.412,0.502-0.359
				c0.202,0.046,0.386,0.187,0.564,0.308c0.048,0.032,0.076,0.155,0.056,0.217c-0.323,0.969-0.149,1.821,0.543,2.579
				c0.068,0.075-0.006,0.282-0.015,0.428c-0.378-0.37-0.916,0.052-1.296-0.264c-0.11-0.092-0.226-0.24-0.241-0.373
				c-0.049-0.459-0.055-0.923-0.077-1.385C241.067,88.092,241.074,88.091,241.08,88.091z"/>
			<path style="fill:#001C33;" d="M251.473,157.541c0.049,0.061,0.091,0.131,0.15,0.181c0.503,0.428,0.504,0.427,0.846-0.083
				c0.042-0.063,0.062-0.157,0.119-0.189c0.124-0.071,0.204,0.022,0.275,0.214c0.255,0.689,0.267,1.362-0.049,2.025
				c-0.475-0.086-0.923-0.147-1.361-0.252c-0.258-0.062-0.324-0.262-0.266-0.531c0.027-0.125-0.021-0.287-0.081-0.409
				c-0.297-0.6-0.305-0.6,0.422-0.903L251.473,157.541z"/>
			<path style="fill:#001C33;" d="M249.513,139.395c0.064,0.046,0.153,0.077,0.184,0.138c0.312,0.609,0.467,1.287,0.858,1.867
				c0.171,0.253-0.183,0.677-0.477,0.634c-0.798-0.118-1.159-0.543-1.045-1.255c0.074-0.46,0.175-0.916,0.277-1.371
				C249.314,139.389,249.444,139.398,249.513,139.395z"/>
			<path style="fill:#001C33;" d="M250.044,168.077c0.66-0.217,1.079,0.11,1.289,0.68c0.111,0.3,0.113,0.624,0.51,0.659
				c0.193,0.017,0.327,0.079,0.313,0.255c-0.031,0.392-0.091,0.781-0.138,1.171l0.057-0.063c-0.389-0.309-0.478-0.964-1.118-0.985
				c-0.287-0.593-0.782-1.084-0.865-1.778L250.044,168.077z"/>
			<path style="fill:#001C33;" d="M247.977,133.74c0.137,0.188,0.277,0.375,0.409,0.566c0.044,0.063,0.103,0.143,0.096,0.209
				c-0.07,0.649,0.343,1.161,0.474,1.749c0.066,0.294,0.038,0.609,0.049,0.822c-0.202,0.257-0.276,0.213-0.308-0.034
				c-0.15-1.138-0.956-2.145-0.665-3.371L247.977,133.74z"/>
			<path style="fill:#001C33;" d="M250.375,154.701c-0.448,0.423-0.71,0.455-0.92,0.149c-0.378-0.548-0.487-1.144-0.375-1.788
				c0.005-0.029,0.155-0.074,0.2-0.047c0.128,0.077,0.274,0.164,0.348,0.287c0.28,0.471,0.535,0.958,0.799,1.439L250.375,154.701z"
				/>
			<path style="fill:#001C33;" d="M252.602,153.848c0.048,0.599,0.099,1.197,0.137,1.796c0.003,0.054-0.085,0.114-0.13,0.171
				c-0.095-0.079-0.272-0.157-0.273-0.236c-0.003-0.595,0.028-1.19,0.048-1.785C252.457,153.812,252.53,153.83,252.602,153.848z"/>
			<path style="fill:#001C33;" d="M251.527,157.594c-0.01-0.695-0.029-1.391-0.022-2.086c0.002-0.21,0.132-0.277,0.259-0.178
				c0.052,0.041,0.103,0.121,0.105,0.185c0.022,0.705-0.102,1.383-0.397,2.026L251.527,157.594z"/>
			<path style="fill:#001C33;" d="M251.923,151.631c-0.053-0.035-0.137-0.059-0.153-0.107c-0.071-0.212-0.132-0.438,0.102-0.593
				c0.03-0.02,0.17,0.044,0.176,0.082c0.022,0.145,0.023,0.297,0.004,0.443C252.044,151.52,251.968,151.574,251.923,151.631z"/>
			<path style="fill:#001C33;" d="M250.565,156.329c0.044-0.131,0.088-0.262,0.133-0.393c0.039,0.065,0.092,0.126,0.112,0.196
				c0.02,0.071,0.025,0.157,0.002,0.225c-0.022,0.064-0.088,0.114-0.135,0.169C250.64,156.461,250.603,156.395,250.565,156.329z"/>
			<path style="fill:#001C33;" d="M250.426,154.74c-0.009-0.154-0.037-0.309-0.023-0.461c0.012-0.129,0.072-0.253,0.111-0.38
				c0.035,0.059,0.085,0.115,0.1,0.179c0.016,0.073,0.023,0.163-0.007,0.227c-0.064,0.138-0.153,0.264-0.232,0.394L250.426,154.74z"
				/>
			<path style="fill:#001C33;" d="M257.851,198.816c-0.023-0.147-0.045-0.293-0.068-0.44c0.321,0.123-0.041,0.256,0.006,0.383
				L257.851,198.816z"/>
			<polygon style="fill:#001C33;" points="254.249,172.153 254.374,172.146 254.324,172.308 			"/>
			<polygon style="fill:#001C33;" points="241.557,90.893 241.711,90.961 241.548,91.018 			"/>
			<path style="fill:#001C33;" d="M246.681,126.789l-0.059-0.053L246.681,126.789z"/>
			<polygon style="fill:#001C33;" points="242.873,117.765 242.857,117.884 242.935,117.82 			"/>
			<path style="fill:#001C33;" d="M241.174,102.147l0.054-0.059L241.174,102.147z"/>
			<polygon style="fill:#001C33;" points="242.461,99.295 242.421,99.381 242.515,99.348 			"/>
			<polygon style="fill:#001C33;" points="242.515,99.348 242.522,99.229 242.461,99.295 			"/>
			<polygon style="fill:#001C33;" points="254.874,173.68 254.927,173.822 254.795,173.809 			"/>
			<path style="fill:#001C33;" d="M239.431,84.75c0.046-0.033,0.134-0.088,0.131-0.095c-0.087-0.166-0.128-0.15-0.111,0.042
				L239.431,84.75z"/>
			<polygon style="fill:#001C33;" points="252.019,170.842 252.167,170.867 252.076,170.779 			"/>
			<polygon style="fill:#001C33;" points="249.869,143.234 249.726,143.161 249.816,143.29 			"/>
		</g>
		<g>
			<path style="fill:#FFC500;" d="M99.238,88.152c2.254,0.039,3.677,0.773,4.27,2.202c0.594,1.429,0.454,3.2-0.415,5.314
				c-0.593,1.606-1.592,3.22-2.995,4.844c-1.403,1.624-3.034,3.132-4.893,4.521c-1.858,1.39-3.835,2.594-5.931,3.611
				c-2.096,1.018-4.151,1.684-6.168,1.996c-1.384,0.314-2.817,0.529-4.3,0.646c-1.482,0.118-3.034,0.118-4.655,0
				c-1.622,2.976-2.827,5.911-3.618,8.808c-0.436,1.684-0.673,3.269-0.711,4.756c-0.04,1.488,0.157,2.78,0.593,3.876
				c0.435,1.096,1.127,1.948,2.075,2.554c0.949,0.607,2.233,0.91,3.855,0.91c1.423,0,2.777-0.176,4.063-0.528
				c1.284-0.353,2.48-0.832,3.588-1.439c1.106-0.606,2.115-1.301,3.024-2.084c0.909-0.783,1.721-1.624,2.432-2.525
				c0.316-0.391,0.603-0.772,0.86-1.145c0.257-0.372,0.483-0.753,0.682-1.145c0.554-0.978,0.949-1.947,1.187-2.907
				c0.237-0.958,0.286-1.8,0.148-2.524c-0.14-0.724-0.475-1.312-1.009-1.762c-0.533-0.45-1.274-0.675-2.224-0.675
				c-1.067,0-2.066,0.284-2.995,0.852c-0.93,0.568-1.69,1.272-2.283,2.114c-0.593,0.842-0.989,1.753-1.187,2.73
				c-0.198,0.979-0.118,1.859,0.237,2.642c0.158-0.508,0.405-0.881,0.741-1.116c0.336-0.235,0.683-0.352,1.038-0.352
				c0.356,0,0.683,0.088,0.978,0.264c0.297,0.176,0.484,0.421,0.563,0.734c0.079,0.274,0.119,0.568,0.119,0.881
				c0,0.313-0.07,0.616-0.208,0.91c-0.139,0.293-0.376,0.539-0.712,0.734c-0.336,0.196-0.781,0.293-1.334,0.293
				c-0.792,0-1.394-0.273-1.809-0.822c-0.416-0.547-0.663-1.233-0.742-2.055c-0.079-0.9,0.039-1.879,0.356-2.936
				c0.315-1.057,0.801-2.045,1.453-2.965c0.652-0.919,1.491-1.673,2.52-2.26c1.027-0.587,2.214-0.861,3.559-0.822
				c1.66,0.04,2.836,0.568,3.528,1.585c0.691,1.018,0.958,2.271,0.801,3.758c-0.119,1.214-0.515,2.505-1.187,3.875
				c-0.673,1.371-1.601,2.682-2.787,3.934c-1.582,1.683-3.588,3.103-6.019,4.257c-2.432,1.154-5.249,1.712-8.451,1.673
				c-2.412-0.04-4.38-0.382-5.901-1.027c-1.522-0.646-2.698-1.536-3.528-2.672c-0.91-1.253-1.444-2.701-1.602-4.345
				c-0.158-1.644-0.06-3.366,0.297-5.167c0.315-1.644,0.81-3.278,1.482-4.903c0.672-1.624,1.423-3.18,2.254-4.668
				c-2.847-0.587-5.2-1.586-7.058-2.995c-1.227-0.9-2.165-1.908-2.817-3.024c-0.652-1.116-0.969-2.231-0.949-3.347
				c0.021-1.116,0.396-2.182,1.127-3.2c0.732-1.018,1.868-1.917,3.41-2.701c0.237-0.156,0.435-0.254,0.594-0.294l0.889,0.47
				c-0.079,0.079-0.168,0.118-0.267,0.118s-0.207,0.039-0.326,0.117c-1.463,0.666-2.53,1.43-3.202,2.29
				c-0.673,0.861-0.989,1.742-0.949,2.642c0.039,0.901,0.386,1.801,1.038,2.701c0.652,0.901,1.571,1.723,2.758,2.466
				c0.909,0.587,1.937,1.115,3.084,1.585c1.146,0.47,2.411,0.862,3.796,1.174c1.66-2.426,3.537-4.794,5.634-7.105
				c1.502-1.683,3.182-3.327,5.041-4.932c1.858-1.605,3.825-3.033,5.901-4.287c2.075-1.252,4.229-2.251,6.464-2.995
				C94.68,88.524,96.944,88.152,99.238,88.152z M99.297,89.385c-1.741,0-3.49,0.352-5.249,1.057c-1.76,0.705-3.46,1.645-5.101,2.819
				c-1.641,1.174-3.223,2.516-4.744,4.022c-1.522,1.507-2.917,3.063-4.182,4.668c-0.988,1.253-1.889,2.496-2.698,3.729
				c-0.811,1.233-1.533,2.417-2.165,3.552c1.424,0.118,2.808,0.138,4.151,0.059c1.344-0.078,2.648-0.235,3.915-0.47
				c2.055-0.352,4.022-0.948,5.9-1.791c1.878-0.841,3.618-1.85,5.22-3.024c1.601-1.174,3.033-2.496,4.299-3.963
				c1.266-1.468,2.293-3.043,3.084-4.727c0.672-1.683,0.831-3.092,0.475-4.228C101.847,89.953,100.877,89.385,99.297,89.385z"/>
			<path style="fill:#FFC500;" d="M123.197,119.507c-0.673,1.214-1.572,2.457-2.699,3.729c-1.127,1.273-2.372,2.428-3.736,3.464
				c-1.363,1.038-2.768,1.889-4.211,2.554c-1.443,0.666-2.837,0.999-4.181,0.999c-1.107,0.705-2.264,1.262-3.47,1.673
				c-1.206,0.411-2.422,0.617-3.648,0.617c-1.938,0-3.41-0.343-4.418-1.028c-1.008-0.685-1.671-1.595-1.986-2.73
				c-0.277-1.017-0.297-2.123-0.06-3.317c0.237-1.193,0.691-2.416,1.364-3.67c0.79-1.526,1.838-3.003,3.143-4.433
				c1.305-1.428,2.768-2.613,4.389-3.552c1.106-0.665,2.254-1.174,3.44-1.527c1.186-0.352,2.392-0.489,3.617-0.411
				c2.254,0,3.864,0.519,4.834,1.556c0.968,1.038,1.413,2.359,1.334,3.963c-0.04,0.862-0.207,1.762-0.504,2.701
				c-0.297,0.939-0.722,1.899-1.275,2.877c-0.633,1.136-1.384,2.222-2.254,3.259c-0.87,1.038-1.838,2.007-2.905,2.907
				c1.146-0.195,2.322-0.636,3.528-1.321c1.206-0.685,2.352-1.487,3.44-2.407c1.088-0.919,2.086-1.908,2.995-2.965
				c0.909-1.057,1.661-2.035,2.254-2.936H123.197z M100.659,131.426c1.187,0,2.648-0.743,4.389-2.231
				c-0.396-0.235-0.751-0.538-1.067-0.91c-0.317-0.372-0.613-0.773-0.89-1.204c-0.237-0.352-0.396-0.734-0.475-1.145
				c-0.079-0.411-0.079-0.772,0-1.087c0.079-0.352,0.286-0.675,0.623-0.969c0.335-0.294,0.78-0.44,1.334-0.44
				c0.751,0,1.284,0.235,1.602,0.705c0.316,0.47,0.415,0.96,0.297,1.468c-0.08,0.431-0.229,0.792-0.445,1.086
				c-0.218,0.294-0.662,0.44-1.334,0.44c0.395,0.47,0.809,0.822,1.245,1.057c1.344-1.292,2.728-3.209,4.151-5.754
				c0.83-1.526,1.424-2.877,1.779-4.051c0.554-1.683,0.672-2.955,0.355-3.817c-0.316-0.86-0.89-1.292-1.72-1.292
				c-0.751,0-1.641,0.323-2.669,0.969c-1.028,0.646-2.096,1.615-3.202,2.906c-1.147,1.292-2.294,2.995-3.439,5.108
				c-0.673,1.254-1.177,2.369-1.513,3.347c-0.336,0.979-0.544,1.84-0.623,2.583c-0.158,1.057-0.089,1.859,0.208,2.407
				C99.563,131.153,100.027,131.426,100.659,131.426z"/>
			<path style="fill:#FFC500;" d="M163.939,119.566c-0.87,1.488-1.809,2.995-2.817,4.521c-1.008,1.527-2.066,2.917-3.173,4.169
				c-1.107,1.253-2.234,2.281-3.38,3.083c-1.148,0.803-2.314,1.204-3.499,1.204c-1.898,0-3.203-0.47-3.915-1.41
				c-0.554-0.743-0.791-1.614-0.711-2.613c0.078-0.998,0.335-2.055,0.77-3.17c0.435-1.116,0.969-2.261,1.602-3.435
				c0.632-1.174,1.245-2.27,1.838-3.288c0.594-1.018,1.098-1.938,1.513-2.76c0.415-0.822,0.603-1.468,0.564-1.938
				c-0.08-0.43-0.336-0.646-0.771-0.646c-0.711,0-1.541,0.264-2.49,0.793c-0.949,0.528-1.968,1.243-3.055,2.143
				c-1.088,0.901-2.215,1.938-3.38,3.112c-1.167,1.174-2.323,2.427-3.47,3.758c-0.712,1.526-1.404,3.034-2.076,4.521
				c-0.673,1.488-1.345,3.015-2.016,4.58h-4.863c0.869-2.192,1.759-4.306,2.668-6.341c0.909-2.035,1.818-4.129,2.729-6.283
				c0.554-1.252,1.047-2.378,1.482-3.376c0.435-0.998,0.594-1.752,0.475-2.261c0-0.43-0.258-0.646-0.77-0.646
				c-0.712,0-1.513,0.255-2.402,0.763c-0.89,0.509-1.829,1.194-2.817,2.055c-0.988,0.861-2.007,1.87-3.054,3.024
				c-1.048,1.155-2.066,2.378-3.055,3.67c-0.712,1.605-1.414,3.17-2.105,4.697c-0.692,1.526-1.394,3.093-2.105,4.697h-5.041
				c0.594-1.487,1.207-2.984,1.839-4.492c0.632-1.507,1.305-3.063,2.017-4.668c0.712-1.605,1.482-3.289,2.313-5.05
				c0.83-1.762,1.72-3.641,2.669-5.637h5.456c-0.91,1.84-1.571,3.2-1.986,4.081c-0.415,0.881-0.781,1.654-1.098,2.319
				c1.661-1.996,3.331-3.64,5.012-4.932c1.68-1.292,3.271-1.938,4.774-1.938c1.265,0,2.214,0.157,2.847,0.47
				c0.632,0.274,1.107,0.646,1.423,1.115c0.316,0.47,0.494,0.999,0.534,1.586c0.039,0.587-0.029,1.224-0.208,1.908
				c-0.178,0.686-0.444,1.38-0.8,2.085c-0.08,0.157-0.148,0.304-0.208,0.44c-0.06,0.138-0.129,0.285-0.208,0.44
				c1.028-1.135,2.056-2.192,3.084-3.17c1.028-0.978,2.036-1.83,3.025-2.554c0.987-0.724,1.946-1.292,2.876-1.703
				c0.929-0.411,1.788-0.616,2.58-0.616c0.593,0,1.136,0.029,1.631,0.088c0.494,0.059,0.898,0.186,1.216,0.382
				c0.909,0.431,1.423,1.057,1.542,1.879c0.118,0.822-0.011,1.761-0.386,2.818c-0.376,1.057-0.91,2.183-1.602,3.376
				c-0.691,1.195-1.374,2.399-2.046,3.611c-0.673,1.214-1.256,2.369-1.749,3.464c-0.495,1.096-0.723,2.075-0.683,2.936
				c0,0.667,0.297,0.999,0.89,0.999c0.869,0,1.799-0.362,2.788-1.086c0.987-0.724,1.986-1.653,2.994-2.789
				c1.009-1.135,2.007-2.407,2.995-3.816c0.988-1.409,1.918-2.798,2.788-4.169H163.939z"/>
			<path style="fill:#FFC500;" d="M176.807,119.507c-0.87,1.488-1.789,3.005-2.758,4.551c-0.969,1.547-1.957,2.946-2.965,4.198
				c-1.009,1.253-2.026,2.281-3.055,3.083c-1.028,0.803-2.036,1.204-3.024,1.204c-1.74,0-2.976-0.391-3.707-1.175
				c-0.731-0.782-1.107-1.781-1.126-2.994c-0.021-1.213,0.227-2.584,0.741-4.11c0.513-1.527,1.116-3.043,1.809-4.551
				c0.691-1.506,1.413-2.906,2.165-4.198c0.75-1.292,1.343-2.349,1.778-3.17h5.397c-0.317,0.587-0.801,1.459-1.453,2.613
				c-0.652,1.155-1.345,2.437-2.076,3.846c-0.731,1.409-1.433,2.858-2.105,4.345c-0.673,1.488-1.216,2.839-1.632,4.052
				c-0.415,1.213-0.613,2.212-0.593,2.994c0.02,0.784,0.365,1.174,1.038,1.174c0.672,0,1.442-0.352,2.313-1.057
				s1.779-1.624,2.729-2.76c0.949-1.135,1.907-2.407,2.876-3.816c0.969-1.409,1.868-2.818,2.699-4.228H176.807z M171.529,109.114
				c-0.791,0-1.443-0.264-1.957-0.793c-0.514-0.528-0.771-1.164-0.771-1.908c0-0.783,0.257-1.438,0.771-1.967
				c0.514-0.529,1.166-0.793,1.957-0.793c0.751,0,1.395,0.264,1.928,0.793c0.534,0.528,0.801,1.184,0.801,1.967
				c0,0.744-0.267,1.38-0.801,1.908C172.923,108.85,172.279,109.114,171.529,109.114z"/>
			<path style="fill:#FFC500;" d="M202.664,119.566c-0.83,1.488-1.749,2.995-2.758,4.521c-1.008,1.527-2.066,2.917-3.173,4.169
				c-1.107,1.253-2.244,2.281-3.41,3.083c-1.167,0.803-2.323,1.204-3.47,1.204c-0.988,0-1.799-0.138-2.432-0.411
				c-0.633-0.273-1.107-0.626-1.423-1.057c-0.555-0.705-0.791-1.556-0.712-2.554c0.079-0.998,0.336-2.055,0.771-3.17
				c0.435-1.116,0.968-2.251,1.601-3.406c0.632-1.154,1.246-2.251,1.839-3.288c0.593-1.037,1.097-1.967,1.513-2.789
				c0.415-0.822,0.602-1.468,0.564-1.938c-0.08-0.43-0.356-0.646-0.831-0.646c-0.593,0-1.285,0.196-2.075,0.587
				c-0.792,0.392-1.631,0.93-2.52,1.615c-0.89,0.686-1.829,1.498-2.817,2.437c-0.988,0.939-1.978,1.938-2.965,2.995
				c-0.91,1.879-1.79,3.749-2.64,5.607c-0.851,1.859-1.691,3.749-2.521,5.666h-5.041c1.345-3.406,2.748-6.752,4.211-10.04
				c1.462-3.288,3.004-6.556,4.626-9.806h5.396c-0.436,0.901-0.88,1.811-1.334,2.73c-0.455,0.92-0.9,1.85-1.335,2.789
				c1.739-1.761,3.43-3.2,5.071-4.315c1.64-1.116,3.152-1.673,4.537-1.673c1.186,0,2.135,0.176,2.847,0.528
				c0.909,0.431,1.423,1.057,1.542,1.879c0.118,0.822-0.011,1.752-0.386,2.789c-0.376,1.038-0.91,2.163-1.602,3.376
				c-0.692,1.214-1.374,2.408-2.046,3.582c-0.673,1.174-1.256,2.31-1.75,3.406c-0.494,1.096-0.722,2.055-0.682,2.877
				c0,0.744,0.297,1.116,0.89,1.116c0.869,0,1.799-0.362,2.787-1.086c0.988-0.724,1.987-1.653,2.995-2.789
				c1.009-1.135,2.007-2.407,2.995-3.816c0.988-1.409,1.917-2.798,2.787-4.169H202.664z"/>
			<path style="fill:#FFC500;" d="M229.529,119.389c-0.752,1.409-1.631,2.956-2.64,4.639c-1.008,1.684-2.146,3.269-3.41,4.756
				c-1.266,1.488-2.659,2.799-4.181,3.934c-1.522,1.135-3.173,1.879-4.952,2.232c-0.555,1.018-1.216,2.387-1.987,4.11
				c-0.771,1.722-1.71,3.444-2.816,5.167c-0.673,1.018-1.404,1.996-2.194,2.936c-0.792,0.939-1.671,1.762-2.64,2.466
				c-0.97,0.705-2.026,1.271-3.173,1.703c-1.147,0.431-2.393,0.646-3.736,0.646c-1.305,0-2.194-0.411-2.669-1.233
				c-0.475-0.822-0.514-1.762-0.118-2.818c0.316-0.862,0.89-1.811,1.72-2.848c0.83-1.038,1.877-2.124,3.144-3.259
				c1.265-1.136,2.658-2.251,4.181-3.347c1.521-1.096,3.113-2.134,4.774-3.112c0.475-0.939,0.939-1.899,1.394-2.878
				c0.454-0.978,0.898-1.976,1.334-2.995c-0.909,0.705-1.957,1.39-3.143,2.055c-1.186,0.665-2.472,0.999-3.855,0.999
				c-1.542,0-2.768-0.285-3.677-0.852c-0.91-0.567-1.533-1.311-1.868-2.231c-0.337-0.919-0.426-1.967-0.267-3.141
				c0.157-1.174,0.513-2.387,1.067-3.641c0.869-1.957,2.075-3.758,3.617-5.402c1.424-1.565,3.064-2.857,4.923-3.875
				c1.857-1.018,3.816-1.526,5.871-1.526c1.937,0,3.144,0.725,3.618,2.172c0.157-0.313,0.286-0.596,0.385-0.851
				c0.099-0.254,0.208-0.538,0.327-0.851h5.396c-0.475,1.018-0.89,1.948-1.245,2.789c-0.356,0.842-0.762,1.811-1.216,2.906
				c-0.455,1.096-0.94,2.251-1.453,3.464c-0.515,1.174-1.029,2.369-1.542,3.581c-0.515,1.214-0.999,2.369-1.453,3.464
				c-0.455,1.097-0.87,2.076-1.245,2.936c-0.377,0.86-0.663,1.546-0.86,2.055c1.462-0.314,2.896-1.067,4.3-2.261
				c1.403-1.193,2.718-2.525,3.943-3.993c1.226-1.468,2.313-2.936,3.263-4.404c0.948-1.468,1.68-2.632,2.194-3.494H229.529z
				 M197.86,150.803c1.027,0,2.085-0.597,3.173-1.791c1.087-1.194,2.145-2.652,3.173-4.374c0.75-1.253,1.473-2.545,2.164-3.876
				c0.691-1.331,1.335-2.583,1.928-3.758c-1.503,0.939-2.936,1.927-4.3,2.965c-1.364,1.037-2.58,2.064-3.648,3.083
				c-2.016,1.879-3.301,3.483-3.854,4.814c-0.316,0.705-0.395,1.37-0.237,1.997C196.416,150.489,196.95,150.803,197.86,150.803z
				 M204.858,131.367c0.79,0,1.542-0.126,2.254-0.381c0.711-0.254,1.383-0.577,2.016-0.969c0.633-0.391,1.226-0.822,1.779-1.292
				c0.554-0.47,1.048-0.939,1.483-1.409c0.435-0.978,0.839-1.957,1.216-2.936c0.375-0.978,0.761-1.956,1.156-2.935
				c0.435-1.018,0.85-2.026,1.245-3.024c0.395-0.999,0.81-2.006,1.245-3.024c-0.079-0.626-0.326-1.135-0.741-1.527
				c-0.415-0.391-0.959-0.587-1.631-0.587c-1.067,0-2.194,0.44-3.38,1.321c-1.186,0.881-2.334,2.007-3.44,3.376
				c-0.673,0.784-1.305,1.635-1.898,2.554c-0.593,0.92-1.107,1.83-1.542,2.73c-0.555,1.057-0.989,2.065-1.305,3.024
				c-0.317,0.959-0.484,1.82-0.504,2.584c-0.021,0.763,0.128,1.371,0.444,1.82C203.572,131.143,204.106,131.367,204.858,131.367z"/>
		</g>
		<g>
			<path style="fill:#FFFFFF;" d="M200.45,181.32c1.189,0.846,2.109,1.885,2.76,3.119c0.649,1.232,0.966,2.41,0.948,3.533
				c-0.02,1.122-0.4,2.051-1.144,2.787c-0.744,0.736-1.896,1.012-3.456,0.828c-0.93-0.074-1.766-0.396-2.509-0.966
				c-0.744-0.571-1.209-1.297-1.395-2.181c-0.111-0.736-0.019-1.251,0.279-1.545c0.148-0.185,0.325-0.322,0.529-0.414
				c0.204-0.092,0.437-0.065,0.697,0.083c0.408,0.184,0.641,0.441,0.696,0.773c0.057,0.331-0.027,0.625-0.25,0.883
				c-0.149,0.184-0.355,0.294-0.613,0.331c-0.261,0.036-0.577-0.037-0.948-0.221c0.186,0.846,0.632,1.518,1.338,2.015
				c0.706,0.497,1.468,0.782,2.286,0.856c1.374,0.11,2.369-0.175,2.982-0.856c0.613-0.681,0.893-1.518,0.836-2.511
				c-0.056-0.994-0.409-2.015-1.059-3.063c-0.651-1.049-1.553-1.904-2.704-2.566c-1.859-1.068-4.219-1.666-7.08-1.794
				c-2.863-0.129-6.059,0.036-9.59,0.497c-3.531,0.46-7.341,1.132-11.429,2.015c-4.089,0.883-8.298,1.83-12.628,2.843
				c-4.33,1.012-8.716,2.005-13.157,2.98c-4.441,0.975-8.79,1.767-13.046,2.374c-4.256,0.607-8.353,0.957-12.293,1.049
				c-3.939,0.091-7.573-0.23-10.899-0.966c-3.326-0.737-6.281-1.969-8.864-3.698c-2.584-1.73-4.637-4.122-6.16-7.176
				c-0.633-1.289-1.078-2.594-1.338-3.919c-0.261-1.325-0.354-2.668-0.279-4.029c-1.97-0.625-3.661-1.499-5.073-2.622
				c-1.413-1.122-2.564-2.391-3.456-3.808c-0.893-1.416-1.516-2.934-1.868-4.554c-0.353-1.619-0.474-3.237-0.362-4.857
				c0.148-1.729,0.558-3.403,1.227-5.023c0.669-1.619,1.589-3.072,2.76-4.361c1.171-1.288,2.593-2.346,4.265-3.174
				c1.673-0.828,3.568-1.297,5.687-1.407c1.264-0.073,2.527,0.009,3.791,0.249c1.264,0.24,2.444,0.626,3.541,1.159
				c1.096,0.534,2.081,1.187,2.954,1.96c0.873,0.773,1.57,1.675,2.091,2.705c1.709-1.288,3.438-2.447,5.185-3.478
				c1.747-1.03,3.513-1.95,5.297-2.76c0.669-1.398,1.374-2.705,2.118-3.919c0.743-1.214,1.598-2.299,2.564-3.257
				c1.301-1.288,2.769-2.318,4.404-3.091c1.636-0.773,3.568-1.159,5.799-1.159c0.52,0,1.031,0.046,1.533,0.138
				c0.501,0.092,0.929,0.268,1.282,0.524c0.353,0.258,0.594,0.589,0.725,0.994c0.13,0.405,0.102,0.92-0.084,1.545
				c-0.298,0.994-0.967,1.923-2.007,2.788c-1.041,0.865-2.222,1.638-3.54,2.318c-1.32,0.681-2.668,1.252-4.042,1.711
				c-1.376,0.46-2.546,0.782-3.513,0.966c-0.855,1.951-1.645,4.03-2.369,6.237c-0.725,2.208-1.487,4.435-2.286,6.679
				c-0.8,2.245-1.682,4.416-2.647,6.513c-0.968,2.098-2.119,3.975-3.457,5.63c-1.561,1.914-3.429,3.45-5.603,4.609
				c-2.175,1.159-4.842,1.739-8.001,1.739c-2.305,0-4.293-0.24-5.965-0.718c-0.075,1.25,0,2.493,0.223,3.726
				c0.223,1.232,0.65,2.437,1.282,3.615c1.338,2.465,3.233,4.351,5.687,5.658c2.453,1.306,5.314,2.189,8.586,2.649
				c3.27,0.459,6.866,0.58,10.788,0.359c3.921-0.221,8.028-0.663,12.32-1.325c4.293-0.663,8.689-1.445,13.186-2.346
				c4.497-0.902,8.939-1.794,13.324-2.677c4.386-0.883,8.65-1.675,12.795-2.374c4.145-0.7,8.009-1.159,11.597-1.38
				c3.586-0.221,6.811-0.138,9.673,0.248C196.232,179.195,198.592,180.032,200.45,181.32z M96.308,143.4
				c-1.971,0.111-3.708,0.562-5.213,1.353c-1.506,0.792-2.779,1.803-3.819,3.036c-1.041,1.233-1.831,2.631-2.369,4.195
				c-0.539,1.564-0.846,3.174-0.92,4.83c-0.075,1.509,0.064,3.018,0.418,4.526c0.353,1.509,0.9,2.917,1.645,4.223
				c0.743,1.307,1.709,2.475,2.899,3.505c1.188,1.031,2.583,1.822,4.182,2.374c0.147-1.987,0.687-4.029,1.616-6.127
				c0.669-1.509,1.486-3.036,2.453-4.581c-1.71-0.515-2.946-1.316-3.707-2.401c-0.763-1.085-1.051-2.088-0.864-3.008
				c0.074-0.405,0.26-0.782,0.558-1.132c0.297-0.349,0.743-0.525,1.338-0.525c0.854,0,1.495,0.276,1.923,0.828
				c0.427,0.552,0.548,1.141,0.362,1.766c-0.074,0.442-0.334,0.828-0.78,1.159c-0.446,0.331-1.041,0.497-1.784,0.497
				c0.446,0.552,0.948,1.003,1.506,1.352c0.558,0.35,1.171,0.617,1.84,0.8c1.263-1.913,2.722-3.744,4.376-5.492
				c1.653-1.748,3.447-3.395,5.38-4.941c-0.372-1.104-0.93-2.06-1.672-2.87c-0.744-0.809-1.608-1.481-2.593-2.015
				c-0.985-0.533-2.062-0.911-3.233-1.131C98.677,143.4,97.496,143.327,96.308,143.4z M109.465,151.404
				c0.223,1.325,0.111,2.585-0.335,3.781c-0.446,1.196-1.115,2.245-2.007,3.147c-0.892,0.902-1.971,1.61-3.233,2.125
				c-1.265,0.516-2.603,0.754-4.015,0.717c-0.26,0-0.511-0.008-0.752-0.027c-0.242-0.018-0.475-0.046-0.697-0.083
				c-1.041,1.545-1.915,3.073-2.62,4.582c-0.93,2.024-1.543,4.048-1.84,6.071c1.338,0.369,2.843,0.552,4.516,0.552
				c2.713,0,4.998-0.699,6.858-2.098c1.858-1.398,3.438-3.201,4.739-5.409c0.854-1.435,1.625-2.999,2.313-4.692
				c0.688-1.692,1.347-3.431,1.979-5.216c0.632-1.785,1.255-3.588,1.868-5.409c0.613-1.822,1.272-3.579,1.979-5.271
				c-3.011,1.472-6.059,3.367-9.144,5.686c0.074,0.258,0.148,0.506,0.223,0.745C109.371,150.843,109.427,151.109,109.465,151.404z
				 M107.737,150.962c-1.673,1.399-3.253,2.88-4.739,4.443c-1.486,1.564-2.843,3.193-4.069,4.885h0.613
				c1.598,0,2.963-0.239,4.098-0.718c1.133-0.478,2.035-1.131,2.704-1.96c0.669-0.828,1.114-1.794,1.338-2.898
				c0.223-1.104,0.241-2.263,0.056-3.477V150.962z M127.361,136.832c-0.521,0.626-0.985,1.233-1.394,1.822
				c-0.409,0.589-0.744,1.141-1.004,1.656c0.781-0.221,1.719-0.524,2.815-0.911c1.097-0.386,2.175-0.846,3.234-1.38
				c1.059-0.533,2.016-1.132,2.871-1.794c0.854-0.663,1.43-1.38,1.727-2.153c0.298-0.772,0.316-1.297,0.057-1.573
				c-0.261-0.276-0.726-0.414-1.395-0.414c-1.078,0-2.239,0.488-3.484,1.462C129.544,134.523,128.401,135.617,127.361,136.832z"/>
			<path style="fill:#FFFFFF;" d="M145.425,160.456c-0.633,1.141-1.478,2.31-2.537,3.505c-1.059,1.196-2.229,2.282-3.512,3.256
				c-1.282,0.976-2.603,1.776-3.959,2.401c-1.357,0.626-2.667,0.938-3.93,0.938c-1.041,0.662-2.129,1.187-3.262,1.573
				c-1.134,0.387-2.277,0.58-3.429,0.58c-1.821,0-3.206-0.322-4.153-0.966c-0.948-0.644-1.571-1.499-1.868-2.566
				c-0.26-0.957-0.278-1.996-0.056-3.119c0.224-1.122,0.65-2.272,1.282-3.45c0.743-1.435,1.729-2.823,2.955-4.167
				c1.227-1.343,2.602-2.456,4.126-3.339c1.04-0.626,2.118-1.104,3.233-1.436c1.115-0.331,2.248-0.459,3.4-0.386
				c2.119,0,3.633,0.488,4.544,1.463c0.91,0.975,1.328,2.217,1.254,3.726c-0.037,0.81-0.194,1.656-0.474,2.539
				c-0.278,0.883-0.679,1.785-1.198,2.705c-0.595,1.068-1.302,2.089-2.119,3.064c-0.817,0.976-1.727,1.886-2.731,2.732
				c1.077-0.184,2.183-0.598,3.317-1.242c1.133-0.643,2.211-1.398,3.233-2.263c1.021-0.864,1.96-1.794,2.815-2.788
				c0.855-0.994,1.562-1.913,2.118-2.76H145.425z M124.24,171.661c1.115,0,2.489-0.698,4.126-2.097
				c-0.372-0.221-0.707-0.505-1.004-0.855c-0.298-0.35-0.576-0.727-0.836-1.132c-0.224-0.331-0.372-0.69-0.446-1.076
				c-0.075-0.386-0.075-0.726,0-1.021c0.074-0.332,0.27-0.635,0.585-0.911c0.315-0.276,0.734-0.414,1.255-0.414
				c0.705,0,1.207,0.221,1.505,0.662c0.298,0.441,0.391,0.902,0.279,1.38c-0.075,0.405-0.215,0.745-0.418,1.021
				c-0.205,0.276-0.623,0.414-1.255,0.414c0.371,0.442,0.762,0.773,1.171,0.994c1.263-1.214,2.564-3.017,3.902-5.409
				c0.78-1.435,1.338-2.705,1.673-3.809c0.52-1.582,0.632-2.778,0.334-3.588c-0.298-0.809-0.836-1.214-1.616-1.214
				c-0.707,0-1.543,0.304-2.509,0.911c-0.967,0.607-1.971,1.518-3.011,2.732c-1.078,1.214-2.156,2.815-3.233,4.802
				c-0.633,1.178-1.106,2.227-1.422,3.146c-0.316,0.92-0.512,1.73-0.585,2.429c-0.149,0.994-0.084,1.748,0.194,2.263
				C123.208,171.404,123.645,171.661,124.24,171.661z"/>
			<path style="fill:#FFFFFF;" d="M168.338,160.456c-0.632,1.141-1.477,2.31-2.536,3.505c-1.06,1.196-2.23,2.282-3.513,3.256
				c-1.282,0.976-2.602,1.776-3.958,2.401c-1.357,0.626-2.667,0.938-3.931,0.938c-1.041,0.662-2.128,1.187-3.262,1.573
				c-1.134,0.387-2.276,0.58-3.429,0.58c-1.821,0-3.205-0.322-4.153-0.966c-0.947-0.644-1.57-1.499-1.867-2.566
				c-0.261-0.957-0.279-1.996-0.056-3.119c0.223-1.122,0.649-2.272,1.282-3.45c0.743-1.435,1.729-2.823,2.955-4.167
				c1.226-1.343,2.601-2.456,4.125-3.339c1.04-0.626,2.118-1.104,3.233-1.436c1.115-0.331,2.249-0.459,3.401-0.386
				c2.118,0,3.632,0.488,4.543,1.463c0.911,0.975,1.329,2.217,1.255,3.726c-0.037,0.81-0.195,1.656-0.474,2.539
				c-0.279,0.883-0.679,1.785-1.199,2.705c-0.595,1.068-1.301,2.089-2.118,3.064c-0.818,0.976-1.729,1.886-2.731,2.732
				c1.077-0.184,2.183-0.598,3.316-1.242c1.134-0.643,2.211-1.398,3.234-2.263c1.021-0.864,1.96-1.794,2.816-2.788
				c0.854-0.994,1.561-1.913,2.118-2.76H168.338z M147.154,171.661c1.114,0,2.489-0.698,4.125-2.097
				c-0.372-0.221-0.706-0.505-1.003-0.855c-0.299-0.35-0.577-0.727-0.837-1.132c-0.223-0.331-0.372-0.69-0.446-1.076
				c-0.074-0.386-0.074-0.726,0-1.021c0.074-0.332,0.27-0.635,0.586-0.911c0.315-0.276,0.733-0.414,1.254-0.414
				c0.706,0,1.208,0.221,1.506,0.662c0.297,0.441,0.39,0.902,0.278,1.38c-0.074,0.405-0.214,0.745-0.418,1.021
				c-0.205,0.276-0.623,0.414-1.254,0.414c0.371,0.442,0.761,0.773,1.17,0.994c1.264-1.214,2.565-3.017,3.903-5.409
				c0.78-1.435,1.338-2.705,1.672-3.809c0.521-1.582,0.632-2.778,0.335-3.588c-0.298-0.809-0.836-1.214-1.617-1.214
				c-0.706,0-1.542,0.304-2.509,0.911c-0.967,0.607-1.97,1.518-3.01,2.732c-1.079,1.214-2.156,2.815-3.234,4.802
				c-0.632,1.178-1.106,2.227-1.421,3.146c-0.316,0.92-0.512,1.73-0.586,2.429c-0.148,0.994-0.083,1.748,0.195,2.263
				C146.121,171.404,146.558,171.661,147.154,171.661z"/>
			<path style="fill:#FFFFFF;" d="M192.645,160.511c-0.78,1.399-1.645,2.815-2.592,4.25c-0.948,1.435-1.942,2.742-2.983,3.919
				c-1.04,1.178-2.109,2.144-3.205,2.898c-1.097,0.754-2.184,1.131-3.262,1.131c-0.93,0-1.691-0.129-2.285-0.386
				c-0.596-0.257-1.041-0.588-1.339-0.994c-0.52-0.662-0.743-1.462-0.669-2.401c0.074-0.938,0.315-1.932,0.725-2.98
				c0.409-1.049,0.911-2.116,1.506-3.202c0.594-1.085,1.171-2.116,1.729-3.091c0.558-0.975,1.031-1.849,1.421-2.622
				c0.391-0.773,0.566-1.38,0.53-1.821c-0.075-0.405-0.335-0.607-0.781-0.607c-0.557,0-1.208,0.185-1.951,0.552
				c-0.743,0.368-1.533,0.875-2.369,1.518c-0.836,0.645-1.72,1.408-2.648,2.291c-0.929,0.883-1.858,1.821-2.787,2.815
				c-0.855,1.766-1.683,3.524-2.481,5.271c-0.799,1.749-1.589,3.524-2.369,5.327h-4.738c1.264-3.201,2.583-6.348,3.958-9.438
				c1.374-3.091,2.824-6.163,4.349-9.218h5.073c-0.409,0.847-0.827,1.702-1.255,2.566c-0.428,0.865-0.846,1.739-1.254,2.622
				c1.635-1.656,3.224-3.008,4.767-4.057c1.542-1.049,2.964-1.573,4.265-1.573c1.115,0,2.008,0.165,2.677,0.497
				c0.854,0.405,1.338,0.993,1.449,1.766c0.111,0.773-0.01,1.648-0.362,2.622c-0.354,0.976-0.855,2.034-1.506,3.174
				c-0.65,1.141-1.291,2.263-1.923,3.367c-0.633,1.104-1.181,2.172-1.644,3.202c-0.466,1.03-0.679,1.932-0.642,2.705
				c0,0.699,0.279,1.048,0.837,1.048c0.816,0,1.69-0.339,2.62-1.021c0.929-0.68,1.867-1.554,2.815-2.622
				c0.947-1.067,1.886-2.263,2.815-3.588c0.929-1.325,1.802-2.63,2.62-3.919H192.645z"/>
		</g>
		<g>
			<path style="fill:#FFFFFF;" d="M129.945,202.543c-0.542-0.147-0.982-0.342-1.321-0.587l0.661-1.529
				c0.318,0.216,0.688,0.391,1.108,0.523c0.42,0.133,0.833,0.199,1.24,0.199c0.772,0,1.158-0.199,1.158-0.597
				c0-0.21-0.11-0.365-0.33-0.466c-0.22-0.101-0.574-0.208-1.062-0.319c-0.535-0.119-0.982-0.246-1.341-0.382
				c-0.359-0.136-0.667-0.355-0.925-0.655c-0.258-0.3-0.386-0.705-0.386-1.215c0-0.447,0.118-0.851,0.355-1.21
				c0.237-0.359,0.591-0.644,1.062-0.854c0.471-0.21,1.048-0.314,1.733-0.314c0.467,0,0.928,0.054,1.382,0.162
				c0.454,0.108,0.854,0.268,1.199,0.477l-0.62,1.54c-0.678-0.378-1.335-0.566-1.972-0.566c-0.4,0-0.691,0.062-0.874,0.184
				c-0.183,0.122-0.274,0.281-0.274,0.477c0,0.196,0.108,0.342,0.325,0.44c0.217,0.098,0.566,0.199,1.047,0.304
				c0.542,0.119,0.991,0.247,1.347,0.383c0.355,0.136,0.664,0.353,0.925,0.649c0.261,0.297,0.391,0.7,0.391,1.21
				c0,0.44-0.119,0.838-0.356,1.194c-0.237,0.356-0.593,0.641-1.067,0.854c-0.474,0.213-1.05,0.319-1.728,0.319
				C131.046,202.763,130.488,202.69,129.945,202.543z"/>
			<path style="fill:#FFFFFF;" d="M139.712,202.386c-0.163,0.105-0.361,0.185-0.595,0.241c-0.234,0.056-0.483,0.084-0.747,0.084
				c-0.718,0-1.27-0.182-1.656-0.545c-0.386-0.363-0.58-0.904-0.58-1.624v-1.907h-0.803v-1.487h0.803v-1.477h1.931v1.477h1.26v1.487
				h-1.26v1.886c0,0.203,0.052,0.361,0.158,0.477c0.105,0.115,0.245,0.173,0.421,0.173c0.224,0,0.42-0.059,0.589-0.178
				L139.712,202.386z"/>
			<path style="fill:#FFFFFF;" d="M145.199,197.488c0.481,0.43,0.722,1.088,0.722,1.975v3.153h-1.799v-0.733
				c-0.278,0.552-0.82,0.828-1.626,0.828c-0.427,0-0.796-0.077-1.108-0.23c-0.311-0.153-0.547-0.361-0.707-0.624
				c-0.159-0.262-0.239-0.561-0.239-0.895c0-0.538,0.2-0.955,0.6-1.252c0.4-0.297,1.017-0.445,1.85-0.445h1.098
				c-0.034-0.601-0.423-0.901-1.168-0.901c-0.265,0-0.532,0.044-0.803,0.131c-0.271,0.087-0.501,0.208-0.691,0.361l-0.65-1.352
				c0.305-0.209,0.676-0.372,1.113-0.487c0.437-0.115,0.876-0.173,1.316-0.173C144.021,196.843,144.719,197.058,145.199,197.488z
				 M143.624,201.286c0.169-0.112,0.291-0.276,0.366-0.492v-0.493h-0.833c-0.562,0-0.843,0.192-0.843,0.576
				c0,0.175,0.064,0.314,0.193,0.419c0.129,0.105,0.305,0.157,0.529,0.157C143.258,201.453,143.455,201.398,143.624,201.286z"/>
			<path style="fill:#FFFFFF;" d="M153.147,196.938l-2.378,5.909c-0.278,0.698-0.617,1.189-1.017,1.472
				c-0.4,0.283-0.888,0.424-1.463,0.424c-0.292,0-0.585-0.047-0.879-0.142c-0.295-0.094-0.534-0.218-0.716-0.372l0.67-1.393
				c0.108,0.105,0.239,0.187,0.392,0.246c0.152,0.059,0.306,0.089,0.462,0.089c0.183,0,0.333-0.039,0.452-0.115
				c0.118-0.077,0.218-0.199,0.3-0.367l-2.358-5.752h1.982l1.352,3.468l1.362-3.468H153.147z"/>
			<path style="fill:#FFFFFF;" d="M158.817,196.927h-2.185v-1.645h6.372v1.645h-2.175v5.689h-2.012V196.927z"/>
			<path style="fill:#FFFFFF;" d="M169.65,196.938v5.679h-1.839v-0.607c-0.203,0.23-0.447,0.405-0.732,0.523
				c-0.284,0.119-0.586,0.178-0.904,0.178c-0.711,0-1.279-0.216-1.702-0.649c-0.424-0.433-0.635-1.083-0.635-1.949v-3.175h1.931
				v2.85c0,0.426,0.078,0.737,0.234,0.932c0.156,0.196,0.383,0.293,0.681,0.293c0.305,0,0.554-0.11,0.747-0.33
				c0.193-0.22,0.29-0.557,0.29-1.011v-2.735H169.65z"/>
			<path style="fill:#FFFFFF;" d="M176.434,197.472c0.417,0.419,0.625,1.051,0.625,1.896v3.248h-1.931v-2.923
				c0-0.775-0.301-1.163-0.904-1.163c-0.332,0-0.598,0.112-0.798,0.335c-0.2,0.224-0.3,0.559-0.3,1.006v2.745h-1.931v-5.679h1.839
				v0.618c0.217-0.23,0.474-0.407,0.772-0.529c0.298-0.122,0.623-0.184,0.976-0.184
				C175.466,196.843,176.017,197.053,176.434,197.472z"/>
			<path style="fill:#FFFFFF;" d="M184.254,200.28h-4.004c0.081,0.294,0.239,0.519,0.473,0.676c0.234,0.157,0.527,0.236,0.879,0.236
				c0.265,0,0.493-0.038,0.686-0.115c0.193-0.077,0.388-0.203,0.585-0.377l1.016,1.09c-0.535,0.615-1.318,0.922-2.348,0.922
				c-0.643,0-1.209-0.125-1.697-0.377c-0.488-0.251-0.866-0.601-1.133-1.048c-0.268-0.447-0.401-0.954-0.401-1.519
				c0-0.559,0.13-1.06,0.391-1.503c0.261-0.443,0.622-0.791,1.082-1.043c0.461-0.251,0.979-0.377,1.555-0.377
				c0.549,0,1.047,0.117,1.494,0.351c0.447,0.234,0.801,0.573,1.062,1.016c0.261,0.444,0.391,0.969,0.391,1.577
				C184.284,199.802,184.274,199.965,184.254,200.28z M180.6,198.52c-0.2,0.175-0.327,0.413-0.381,0.712h2.256
				c-0.054-0.3-0.181-0.538-0.381-0.712c-0.2-0.174-0.449-0.262-0.747-0.262C181.049,198.258,180.8,198.345,180.6,198.52z"/>
			<path style="fill:#FFFFFF;" d="M191.337,194.842v7.774h-1.839v-0.566c-0.359,0.441-0.898,0.66-1.616,0.66
				c-0.501,0-0.958-0.121-1.372-0.361c-0.414-0.241-0.74-0.585-0.981-1.032c-0.24-0.447-0.361-0.964-0.361-1.55
				c0-0.587,0.121-1.102,0.361-1.545c0.241-0.443,0.567-0.784,0.981-1.021c0.413-0.237,0.87-0.356,1.372-0.356
				c0.657,0,1.166,0.196,1.525,0.587v-2.588H191.337z M189.111,200.767c0.217-0.241,0.325-0.575,0.325-1.001
				c0-0.419-0.107-0.747-0.32-0.985c-0.213-0.237-0.489-0.357-0.828-0.357c-0.339,0-0.617,0.119-0.833,0.357
				c-0.217,0.237-0.325,0.566-0.325,0.985c0,0.426,0.108,0.759,0.325,1.001c0.217,0.241,0.495,0.361,0.833,0.361
				C188.62,201.129,188.895,201.008,189.111,200.767z"/>
		</g>
	</g>
</g>
</svg>
